<svg id="svg" version="1.1" xmlns="http://www.w3.org/2000/svg" xmlns:xlink="http://www.w3.org/1999/xlink" width="400" height="400" viewBox="0, 0, 400,400"><g id="svgg"><path id="path0" d="M250.600 26.400 C 250.464 26.620,248.959 26.800,247.256 26.800 C 245.553 26.800,243.989 26.965,243.780 27.166 C 243.571 27.368,242.320 27.634,241.000 27.758 C 235.303 28.294,234.000 28.495,234.000 28.837 C 234.000 29.037,233.201 29.200,232.224 29.200 C 231.247 29.200,230.336 29.380,230.200 29.600 C 230.064 29.820,229.254 30.000,228.400 30.000 C 227.546 30.000,226.736 30.180,226.600 30.400 C 226.464 30.620,225.643 30.800,224.776 30.800 C 223.909 30.800,223.200 30.980,223.200 31.200 C 223.200 31.420,222.581 31.600,221.824 31.600 C 221.067 31.600,220.336 31.780,220.200 32.000 C 220.064 32.220,219.423 32.400,218.776 32.400 C 218.129 32.400,217.600 32.580,217.600 32.800 C 217.600 33.020,216.970 33.200,216.200 33.200 C 215.430 33.200,214.800 33.380,214.800 33.600 C 214.800 33.820,214.271 34.000,213.624 34.000 C 212.977 34.000,212.336 34.180,212.200 34.400 C 212.064 34.620,211.524 34.800,211.000 34.800 C 210.476 34.800,209.936 34.980,209.800 35.200 C 209.664 35.420,209.113 35.600,208.576 35.600 C 208.039 35.600,207.600 35.780,207.600 36.000 C 207.600 36.220,207.060 36.400,206.400 36.400 C 205.740 36.400,205.200 36.580,205.200 36.800 C 205.200 37.020,204.660 37.200,204.000 37.200 C 203.340 37.200,202.800 37.380,202.800 37.600 C 202.800 37.820,202.350 38.000,201.800 38.000 C 201.250 38.000,200.800 38.180,200.800 38.400 C 200.800 38.620,200.350 38.800,199.800 38.800 C 199.250 38.800,198.800 38.980,198.800 39.200 C 198.800 39.420,198.260 39.600,197.600 39.600 C 196.940 39.600,196.400 39.780,196.400 40.000 C 196.400 40.220,196.040 40.400,195.600 40.400 C 195.160 40.400,194.800 40.580,194.800 40.800 C 194.800 41.020,194.461 41.200,194.046 41.200 C 193.631 41.200,192.776 41.469,192.146 41.798 C 191.516 42.126,190.685 42.396,190.300 42.398 C 189.915 42.399,189.600 42.580,189.600 42.800 C 189.600 43.020,189.321 43.200,188.981 43.200 C 188.640 43.200,187.616 43.560,186.706 44.000 C 185.795 44.440,184.814 44.800,184.525 44.800 C 184.236 44.800,184.000 44.980,184.000 45.200 C 184.000 45.420,183.640 45.600,183.200 45.600 C 182.760 45.600,182.400 45.780,182.400 46.000 C 182.400 46.220,182.040 46.400,181.600 46.400 C 181.160 46.400,180.800 46.580,180.800 46.800 C 180.800 47.020,180.440 47.200,180.000 47.200 C 179.560 47.200,179.200 47.380,179.200 47.600 C 179.200 47.820,178.840 48.000,178.400 48.000 C 177.960 48.000,177.600 48.146,177.600 48.325 C 177.600 48.504,176.970 48.898,176.200 49.200 C 175.430 49.502,174.800 49.896,174.800 50.075 C 174.800 50.254,174.440 50.400,174.000 50.400 C 173.560 50.400,173.200 50.580,173.200 50.800 C 173.200 51.020,172.840 51.200,172.400 51.200 C 171.960 51.200,171.600 51.380,171.600 51.600 C 171.600 51.820,171.240 52.000,170.800 52.000 C 170.360 52.000,170.000 52.180,170.000 52.400 C 170.000 52.620,169.655 52.800,169.233 52.800 C 168.812 52.800,168.407 52.935,168.333 53.100 C 168.166 53.476,166.036 54.775,165.100 55.071 C 164.715 55.193,164.400 55.452,164.400 55.647 C 164.400 55.841,164.040 56.000,163.600 56.000 C 163.160 56.000,162.800 56.180,162.800 56.400 C 162.800 56.620,162.530 56.800,162.200 56.800 C 161.870 56.800,161.600 56.980,161.600 57.200 C 161.600 57.420,161.330 57.600,161.000 57.600 C 160.670 57.600,160.399 57.735,160.399 57.900 C 160.398 58.065,159.588 58.533,158.599 58.940 C 157.609 59.346,156.800 59.841,156.800 60.040 C 156.800 60.238,156.522 60.400,156.183 60.400 C 155.844 60.400,155.180 60.760,154.708 61.200 C 154.236 61.640,153.613 62.000,153.325 62.000 C 153.036 62.000,152.800 62.180,152.800 62.400 C 152.800 62.620,152.564 62.800,152.275 62.800 C 151.987 62.800,151.402 63.115,150.975 63.500 C 150.549 63.885,149.705 64.455,149.100 64.768 C 148.495 65.080,148.000 65.485,148.000 65.668 C 148.000 65.850,147.764 66.000,147.475 66.000 C 147.187 66.000,146.564 66.360,146.092 66.800 C 145.620 67.240,145.046 67.600,144.817 67.600 C 144.588 67.600,144.400 67.780,144.400 68.000 C 144.400 68.220,144.222 68.400,144.005 68.400 C 143.584 68.400,142.493 69.226,140.968 70.700 C 140.456 71.195,139.847 71.600,139.615 71.600 C 139.383 71.600,138.628 72.140,137.937 72.800 C 137.246 73.460,136.521 74.000,136.324 74.000 C 136.127 74.000,135.569 74.375,135.083 74.834 C 134.597 75.293,133.660 75.949,133.000 76.293 C 132.340 76.637,131.530 77.221,131.200 77.591 C 130.870 77.961,130.299 78.430,129.931 78.632 C 129.163 79.055,126.357 81.427,123.699 83.900 C 122.695 84.835,121.711 85.600,121.514 85.600 C 121.317 85.600,120.096 86.680,118.800 88.000 C 117.504 89.320,116.238 90.400,115.986 90.400 C 115.387 90.400,90.400 115.387,90.400 115.986 C 90.400 116.238,89.320 117.504,88.000 118.800 C 86.680 120.096,85.600 121.327,85.600 121.537 C 85.600 121.747,84.700 122.838,83.600 123.961 C 82.500 125.085,81.600 126.093,81.600 126.201 C 81.600 126.310,80.880 127.163,80.000 128.097 C 79.120 129.031,78.400 129.956,78.400 130.151 C 78.400 130.346,78.068 130.797,77.663 131.153 C 77.257 131.509,76.426 132.596,75.815 133.569 C 75.203 134.541,74.365 135.700,73.952 136.144 C 73.538 136.588,73.200 137.147,73.200 137.387 C 73.200 137.627,72.840 138.083,72.400 138.400 C 71.960 138.717,71.600 139.180,71.600 139.429 C 71.600 139.678,71.060 140.446,70.400 141.137 C 69.740 141.828,69.200 142.574,69.200 142.796 C 69.200 143.018,69.050 143.200,68.868 143.200 C 68.685 143.200,68.281 143.695,67.970 144.300 C 67.660 144.905,67.089 145.691,66.703 146.047 C 66.316 146.403,66.000 146.948,66.000 147.259 C 66.000 147.569,65.640 148.083,65.200 148.400 C 64.760 148.717,64.400 149.257,64.400 149.600 C 64.400 149.943,64.040 150.483,63.600 150.800 C 63.160 151.117,62.800 151.614,62.800 151.905 C 62.800 152.196,62.440 152.820,62.000 153.292 C 61.560 153.764,61.200 154.387,61.200 154.675 C 61.200 154.964,61.059 155.200,60.886 155.200 C 60.714 155.200,60.039 156.277,59.386 157.593 C 58.734 158.910,58.065 159.990,57.900 159.993 C 57.735 159.997,57.600 160.270,57.600 160.600 C 57.600 160.930,57.420 161.200,57.200 161.200 C 56.980 161.200,56.800 161.560,56.800 162.000 C 56.800 162.440,56.620 162.800,56.400 162.800 C 56.180 162.800,56.000 163.036,56.000 163.325 C 56.000 163.613,55.640 164.236,55.200 164.708 C 54.760 165.180,54.400 165.844,54.400 166.183 C 54.400 166.522,54.220 166.800,54.000 166.800 C 53.780 166.800,53.600 167.160,53.600 167.600 C 53.600 168.040,53.420 168.400,53.200 168.400 C 52.980 168.400,52.800 168.760,52.800 169.200 C 52.800 169.640,52.620 170.000,52.400 170.000 C 52.180 170.000,52.000 170.345,52.000 170.767 C 52.000 171.188,51.834 171.593,51.630 171.667 C 51.170 171.833,46.400 181.134,46.400 181.866 C 46.400 182.160,46.220 182.400,46.000 182.400 C 45.780 182.400,45.600 182.760,45.600 183.200 C 45.600 183.640,45.420 184.000,45.200 184.000 C 44.980 184.000,44.800 184.360,44.800 184.800 C 44.800 185.240,44.620 185.600,44.400 185.600 C 44.180 185.600,44.000 185.836,44.000 186.125 C 44.000 186.414,43.661 187.359,43.247 188.225 C 42.833 189.091,42.369 190.383,42.216 191.095 C 42.063 191.808,41.772 192.494,41.569 192.619 C 41.366 192.745,41.200 193.287,41.200 193.824 C 41.200 194.361,41.020 194.800,40.800 194.800 C 40.580 194.800,40.400 195.160,40.400 195.600 C 40.400 196.040,40.220 196.400,40.000 196.400 C 39.780 196.400,39.600 196.940,39.600 197.600 C 39.600 198.260,39.420 198.800,39.200 198.800 C 38.980 198.800,38.800 199.149,38.800 199.576 C 38.800 200.003,38.620 200.464,38.400 200.600 C 38.180 200.736,38.000 201.287,38.000 201.824 C 38.000 202.361,37.820 202.800,37.600 202.800 C 37.380 202.800,37.200 203.340,37.200 204.000 C 37.200 204.660,37.020 205.200,36.800 205.200 C 36.580 205.200,36.400 205.740,36.400 206.400 C 36.400 207.060,36.220 207.600,36.000 207.600 C 35.780 207.600,35.600 208.039,35.600 208.576 C 35.600 209.113,35.420 209.664,35.200 209.800 C 34.980 209.936,34.800 210.476,34.800 211.000 C 34.800 211.524,34.620 212.064,34.400 212.200 C 34.180 212.336,34.000 212.876,34.000 213.400 C 34.000 213.924,33.820 214.464,33.600 214.600 C 33.380 214.736,33.200 215.467,33.200 216.224 C 33.200 216.981,33.020 217.600,32.800 217.600 C 32.580 217.600,32.400 218.219,32.400 218.976 C 32.400 219.733,32.240 220.452,32.044 220.573 C 31.708 220.780,31.472 221.793,30.942 225.303 C 30.818 226.129,30.555 226.905,30.358 227.026 C 30.161 227.148,30.000 227.831,30.000 228.544 C 30.000 229.995,29.399 230.800,28.315 230.800 C 27.435 230.800,26.040 231.551,25.157 232.500 C 24.799 232.885,24.243 233.200,23.921 233.200 C 23.599 233.200,23.081 233.695,22.770 234.300 C 22.460 234.905,21.889 235.691,21.503 236.047 C 21.116 236.403,20.800 236.988,20.800 237.347 C 20.800 237.706,20.620 238.000,20.400 238.000 C 20.180 238.000,20.000 238.720,20.000 239.600 C 20.000 240.480,19.820 241.200,19.600 241.200 C 19.380 241.200,19.200 241.650,19.200 242.200 C 19.200 242.750,19.020 243.200,18.800 243.200 C 18.580 243.200,18.400 243.474,18.400 243.809 C 18.400 244.483,14.256 248.800,13.609 248.800 C 13.384 248.800,13.200 248.980,13.200 249.200 C 13.200 249.420,12.840 249.600,12.400 249.600 C 11.960 249.600,11.600 249.780,11.600 250.000 C 11.600 250.220,11.060 250.400,10.400 250.400 C 9.740 250.400,9.200 250.580,9.200 250.800 C 9.200 251.020,8.660 251.200,8.000 251.200 C 7.340 251.200,6.800 251.380,6.800 251.600 C 6.800 251.820,6.480 252.000,6.088 252.000 C 5.697 252.000,5.117 252.360,4.800 252.800 C 4.483 253.240,3.987 253.600,3.699 253.600 C 3.411 253.600,3.057 253.906,2.914 254.281 C 2.770 254.655,2.154 255.483,1.545 256.121 C -0.094 257.836,-0.803 269.799,0.705 270.302 C 0.977 270.392,1.200 270.638,1.200 270.847 C 1.200 271.944,5.523 275.200,6.980 275.200 C 7.321 275.200,7.600 275.380,7.600 275.600 C 7.600 275.820,8.140 276.000,8.800 276.000 C 9.460 276.000,10.000 276.180,10.000 276.400 C 10.000 276.620,10.450 276.800,11.000 276.800 C 11.550 276.800,12.000 276.980,12.000 277.200 C 12.000 277.420,12.345 277.600,12.767 277.600 C 13.188 277.600,13.593 277.735,13.667 277.900 C 13.740 278.065,14.475 278.704,15.300 279.320 C 16.125 279.937,16.800 280.662,16.800 280.932 C 16.800 281.202,17.160 281.683,17.600 282.000 C 18.040 282.317,18.400 282.897,18.400 283.288 C 18.400 283.680,18.580 284.000,18.800 284.000 C 19.020 284.000,19.200 284.540,19.200 285.200 C 19.200 285.860,19.380 286.400,19.600 286.400 C 19.820 286.400,20.000 286.845,20.000 287.388 C 20.000 289.212,24.214 294.800,25.589 294.800 C 25.815 294.800,26.000 294.980,26.000 295.200 C 26.000 295.420,26.360 295.600,26.800 295.600 C 27.240 295.600,27.600 295.780,27.600 296.000 C 27.600 296.220,27.960 296.400,28.400 296.400 C 28.933 296.400,29.200 296.667,29.200 297.200 C 29.200 297.640,29.380 298.000,29.600 298.000 C 29.820 298.000,30.000 298.720,30.000 299.600 C 30.000 300.480,30.180 301.200,30.400 301.200 C 30.620 301.200,30.800 301.830,30.800 302.600 C 30.800 303.370,30.980 304.000,31.200 304.000 C 31.420 304.000,31.600 304.540,31.600 305.200 C 31.600 305.860,31.780 306.400,32.000 306.400 C 32.220 306.400,32.400 306.839,32.400 307.376 C 32.400 307.913,32.580 308.464,32.800 308.600 C 33.020 308.736,33.200 309.197,33.200 309.624 C 33.200 310.051,33.380 310.400,33.600 310.400 C 33.820 310.400,34.000 310.940,34.000 311.600 C 34.000 312.260,34.180 312.800,34.400 312.800 C 34.620 312.800,34.800 313.160,34.800 313.600 C 34.800 314.040,34.980 314.400,35.200 314.400 C 35.420 314.400,35.600 314.755,35.600 315.188 C 35.600 315.621,35.960 316.617,36.400 317.400 C 36.840 318.183,37.200 319.089,37.200 319.412 C 37.200 319.735,37.346 320.000,37.525 320.000 C 37.704 320.000,38.098 320.630,38.400 321.400 C 38.702 322.170,39.096 322.800,39.275 322.800 C 39.454 322.800,39.600 323.070,39.600 323.400 C 39.600 323.730,39.780 324.000,40.000 324.000 C 40.220 324.000,40.400 324.270,40.400 324.600 C 40.400 324.930,40.580 325.200,40.800 325.200 C 41.020 325.200,41.200 325.560,41.200 326.000 C 41.200 326.440,41.362 326.800,41.561 326.800 C 41.759 326.800,42.111 327.295,42.342 327.900 C 42.922 329.421,44.065 331.273,44.900 332.046 C 45.285 332.402,45.600 332.871,45.600 333.088 C 45.600 333.304,46.140 334.046,46.800 334.737 C 47.460 335.428,48.000 336.144,48.000 336.330 C 48.000 337.237,61.902 351.200,62.806 351.200 C 63.023 351.200,63.200 351.380,63.200 351.600 C 63.200 351.820,63.382 352.000,63.604 352.000 C 63.826 352.000,64.572 352.540,65.263 353.200 C 65.954 353.860,66.722 354.400,66.971 354.400 C 67.220 354.400,67.683 354.760,68.000 355.200 C 68.317 355.640,68.897 356.000,69.288 356.000 C 69.680 356.000,70.000 356.167,70.000 356.371 C 70.000 356.575,70.720 357.060,71.600 357.448 C 72.480 357.836,73.200 358.299,73.200 358.477 C 73.200 358.655,73.560 358.800,74.000 358.800 C 74.440 358.800,74.800 358.980,74.800 359.200 C 74.800 359.420,75.070 359.600,75.400 359.600 C 75.730 359.600,76.000 359.780,76.000 360.000 C 76.000 360.220,76.360 360.400,76.800 360.400 C 77.240 360.400,77.600 360.559,77.600 360.753 C 77.600 360.948,77.915 361.210,78.300 361.336 C 78.685 361.462,79.770 362.023,80.711 362.582 C 81.652 363.142,82.777 363.600,83.211 363.600 C 83.645 363.600,84.000 363.780,84.000 364.000 C 84.000 364.220,84.360 364.400,84.800 364.400 C 85.240 364.400,85.600 364.580,85.600 364.800 C 85.600 365.020,85.960 365.200,86.400 365.200 C 86.840 365.200,87.200 365.380,87.200 365.600 C 87.200 365.820,87.740 366.000,88.400 366.000 C 89.060 366.000,89.600 366.180,89.600 366.400 C 89.600 366.620,90.140 366.800,90.800 366.800 C 91.460 366.800,92.000 366.980,92.000 367.200 C 92.000 367.420,92.360 367.600,92.800 367.600 C 93.240 367.600,93.600 367.780,93.600 368.000 C 93.600 368.220,94.230 368.400,95.000 368.400 C 95.770 368.400,96.400 368.580,96.400 368.800 C 96.400 369.020,96.940 369.200,97.600 369.200 C 98.260 369.200,98.800 369.380,98.800 369.600 C 98.800 370.182,104.639 370.098,105.690 369.500 C 107.976 368.200,108.502 366.876,107.985 363.720 C 107.776 362.444,107.603 361.310,107.602 361.200 C 107.600 361.090,107.194 360.549,106.700 359.997 C 105.472 358.629,104.831 358.349,98.400 356.376 C 96.750 355.870,95.229 355.308,95.020 355.128 C 94.811 354.948,94.411 354.800,94.132 354.800 C 93.149 354.800,85.870 351.357,81.285 348.723 C 63.047 338.247,49.838 321.423,43.189 300.200 C 40.765 292.465,40.820 292.964,42.177 290.891 C 42.714 290.071,43.633 287.960,44.220 286.200 C 46.384 279.700,48.895 277.236,55.400 275.228 C 61.084 273.473,64.779 268.711,64.796 263.119 C 64.803 260.635,62.847 256.475,60.846 254.718 C 59.401 253.450,55.664 251.600,54.547 251.600 C 51.221 251.600,44.400 244.782,44.400 241.458 C 44.400 240.633,42.948 237.332,42.000 235.999 C 41.388 235.141,41.288 234.632,41.555 233.745 C 41.745 233.115,42.110 231.610,42.367 230.400 C 42.623 229.190,43.021 227.480,43.250 226.600 C 43.479 225.720,43.852 224.280,44.079 223.400 C 44.307 222.520,44.631 221.350,44.800 220.800 C 44.969 220.250,45.329 218.990,45.599 218.000 C 45.870 217.010,46.231 215.840,46.402 215.400 C 46.573 214.960,46.989 213.700,47.326 212.600 C 47.663 211.500,48.508 209.070,49.205 207.200 C 49.902 205.330,50.610 203.350,50.779 202.800 C 51.977 198.911,60.291 181.116,64.142 174.200 C 65.419 171.908,65.923 171.023,68.016 167.400 C 73.894 157.224,85.142 141.314,93.042 132.000 C 102.062 121.368,114.476 108.454,122.400 101.461 C 124.930 99.228,127.090 97.300,127.200 97.176 C 128.464 95.749,140.796 85.981,146.800 81.650 C 153.491 76.823,170.975 65.600,171.803 65.600 C 171.892 65.600,172.845 65.081,173.922 64.446 C 178.157 61.949,178.445 62.387,175.000 66.080 C 173.900 67.260,172.011 69.389,170.802 70.812 C 169.594 72.236,168.506 73.490,168.386 73.600 C 167.275 74.613,156.823 89.048,155.933 90.800 C 155.653 91.350,154.956 92.520,154.384 93.400 C 150.716 99.044,143.697 112.898,141.213 119.400 C 141.045 119.840,140.703 120.695,140.454 121.300 C 139.599 123.374,139.280 124.202,138.800 125.600 C 138.536 126.370,138.169 127.360,137.986 127.800 C 137.656 128.592,136.749 131.341,135.413 135.600 C 134.831 137.455,133.955 140.634,133.043 144.200 C 132.337 146.959,131.495 150.772,131.159 152.726 C 129.867 160.257,129.546 162.562,129.003 168.237 C 125.915 200.464,134.546 229.527,152.476 247.279 C 163.622 258.315,178.687 261.217,197.400 255.933 C 203.052 254.337,213.203 249.877,216.460 247.557 C 217.045 247.141,217.641 246.800,217.784 246.800 C 218.236 246.800,225.363 241.837,226.400 240.800 C 226.510 240.690,227.950 239.445,229.600 238.034 C 241.044 228.246,250.598 214.357,254.801 201.400 C 255.515 199.200,256.302 196.790,256.549 196.044 C 257.133 194.288,257.727 194.382,258.083 196.285 C 261.299 213.468,261.147 227.889,257.561 245.800 C 256.710 250.052,255.295 255.873,254.402 258.800 C 254.234 259.350,253.693 261.150,253.200 262.800 C 248.980 276.910,241.470 292.662,232.745 305.699 C 230.380 309.234,226.083 315.177,225.588 315.600 C 225.459 315.710,225.094 316.179,224.777 316.643 C 221.416 321.553,210.075 333.218,202.573 339.482 C 194.769 345.997,181.106 354.639,176.800 355.782 C 171.371 357.224,169.530 357.686,167.900 358.016 C 163.049 358.997,162.045 359.192,159.800 359.588 C 150.622 361.207,137.535 362.177,130.156 361.787 C 123.312 361.425,121.154 362.365,120.251 366.100 C 120.104 366.705,119.808 367.200,119.592 367.200 C 119.377 367.200,119.200 367.830,119.200 368.600 C 119.200 369.370,119.380 370.000,119.600 370.000 C 119.820 370.000,120.000 370.278,120.000 370.618 C 120.000 371.407,121.777 373.200,122.558 373.200 C 122.885 373.200,123.264 373.380,123.400 373.600 C 123.737 374.146,148.263 374.146,148.600 373.600 C 148.736 373.380,150.356 373.200,152.200 373.200 C 154.044 373.200,155.664 373.020,155.800 372.800 C 155.936 372.580,157.207 372.400,158.624 372.400 C 160.075 372.400,161.200 372.225,161.200 372.000 C 161.200 371.780,162.154 371.600,163.320 371.600 C 164.486 371.600,165.611 371.438,165.820 371.241 C 166.029 371.044,166.965 370.774,167.900 370.641 C 172.099 370.046,172.818 369.894,173.026 369.558 C 173.148 369.361,173.867 369.200,174.624 369.200 C 175.381 369.200,176.000 369.020,176.000 368.800 C 176.000 368.580,176.720 368.400,177.600 368.400 C 178.480 368.400,179.200 368.220,179.200 368.000 C 179.200 367.780,179.920 367.600,180.800 367.600 C 181.680 367.600,182.400 367.420,182.400 367.200 C 182.400 366.980,182.940 366.800,183.600 366.800 C 184.260 366.800,184.800 366.620,184.800 366.400 C 184.800 366.180,185.340 366.000,186.000 366.000 C 186.660 366.000,187.200 365.820,187.200 365.600 C 187.200 365.380,187.830 365.200,188.600 365.200 C 189.370 365.200,190.000 365.020,190.000 364.800 C 190.000 364.580,190.540 364.400,191.200 364.400 C 191.860 364.400,192.400 364.220,192.400 364.000 C 192.400 363.780,192.839 363.600,193.376 363.600 C 193.913 363.600,194.464 363.420,194.600 363.200 C 194.736 362.980,195.276 362.800,195.800 362.800 C 196.324 362.800,196.864 362.620,197.000 362.400 C 197.136 362.180,197.597 362.000,198.024 362.000 C 198.451 362.000,198.800 361.820,198.800 361.600 C 198.800 361.380,199.340 361.200,200.000 361.200 C 200.660 361.200,201.200 361.020,201.200 360.800 C 201.200 360.580,201.560 360.400,202.000 360.400 C 202.440 360.400,202.800 360.220,202.800 360.000 C 202.800 359.780,203.340 359.600,204.000 359.600 C 204.660 359.600,205.200 359.420,205.200 359.200 C 205.200 358.980,205.549 358.800,205.976 358.800 C 206.403 358.800,206.864 358.620,207.000 358.400 C 207.136 358.180,207.552 357.999,207.924 357.998 C 208.296 357.996,209.116 357.726,209.746 357.398 C 210.376 357.069,211.141 356.800,211.446 356.800 C 211.751 356.800,212.000 356.620,212.000 356.400 C 212.000 356.180,212.279 356.000,212.619 356.000 C 212.960 356.000,213.984 355.640,214.894 355.200 C 215.805 354.760,216.786 354.400,217.075 354.400 C 217.364 354.400,217.600 354.220,217.600 354.000 C 217.600 353.780,217.960 353.600,218.400 353.600 C 218.840 353.600,219.200 353.420,219.200 353.200 C 219.200 352.980,219.560 352.800,220.000 352.800 C 220.440 352.800,220.800 352.620,220.800 352.400 C 220.800 352.180,221.160 352.000,221.600 352.000 C 222.040 352.000,222.400 351.854,222.400 351.675 C 222.400 351.496,223.030 351.102,223.800 350.800 C 224.570 350.498,225.200 350.104,225.200 349.925 C 225.200 349.746,225.560 349.600,226.000 349.600 C 226.440 349.600,226.800 349.420,226.800 349.200 C 226.800 348.980,227.160 348.800,227.600 348.800 C 228.040 348.800,228.400 348.620,228.400 348.400 C 228.400 348.180,228.760 348.000,229.200 348.000 C 229.640 348.000,230.000 347.820,230.000 347.600 C 230.000 347.380,230.236 347.200,230.525 347.200 C 230.813 347.200,231.436 346.840,231.908 346.400 C 232.380 345.960,233.044 345.600,233.383 345.600 C 233.722 345.600,234.000 345.420,234.000 345.200 C 234.000 344.980,234.360 344.800,234.800 344.800 C 235.240 344.800,235.600 344.620,235.600 344.400 C 235.600 344.180,235.920 344.000,236.312 344.000 C 236.703 344.000,237.283 343.640,237.600 343.200 C 237.917 342.760,238.497 342.400,238.888 342.400 C 239.280 342.400,239.601 342.265,239.601 342.100 C 239.602 341.935,240.412 341.467,241.401 341.060 C 242.391 340.654,243.200 340.180,243.200 340.009 C 243.200 339.837,243.740 339.473,244.400 339.200 C 245.060 338.927,245.600 338.545,245.600 338.351 C 245.600 338.158,245.920 338.000,246.312 338.000 C 246.703 338.000,247.283 337.640,247.600 337.200 C 247.917 336.760,248.497 336.400,248.888 336.400 C 249.280 336.400,249.600 336.250,249.600 336.068 C 249.600 335.885,250.095 335.481,250.700 335.170 C 251.305 334.860,252.091 334.289,252.447 333.903 C 252.803 333.516,253.322 333.200,253.600 333.200 C 253.878 333.200,254.397 332.884,254.753 332.497 C 255.109 332.111,255.895 331.540,256.500 331.230 C 257.105 330.919,257.600 330.515,257.600 330.332 C 257.600 330.150,257.782 330.000,258.004 330.000 C 258.226 330.000,258.972 329.460,259.663 328.800 C 260.354 328.140,261.122 327.600,261.371 327.600 C 261.620 327.600,262.083 327.240,262.400 326.800 C 262.717 326.360,263.282 326.000,263.655 326.000 C 264.028 326.000,264.393 325.848,264.467 325.662 C 264.540 325.476,265.590 324.626,266.800 323.773 C 268.010 322.921,269.090 322.127,269.200 322.009 C 269.310 321.892,270.079 321.289,270.909 320.670 C 271.739 320.052,272.856 319.108,273.391 318.573 C 273.926 318.038,274.461 317.600,274.580 317.600 C 274.699 317.600,275.715 316.700,276.839 315.600 C 277.962 314.500,279.053 313.600,279.263 313.600 C 279.473 313.600,280.704 312.520,282.000 311.200 C 283.296 309.880,284.560 308.800,284.810 308.800 C 285.403 308.800,308.800 285.403,308.800 284.810 C 308.800 284.560,309.880 283.296,311.200 282.000 C 312.520 280.704,313.600 279.479,313.600 279.276 C 313.600 279.073,314.545 277.904,315.700 276.677 C 318.807 273.376,319.704 272.340,320.794 270.796 C 321.335 270.028,322.084 269.067,322.457 268.659 C 322.830 268.252,323.636 267.127,324.248 266.159 C 324.859 265.192,325.504 264.400,325.680 264.400 C 325.856 264.400,326.000 264.112,326.000 263.760 C 326.000 263.409,326.540 262.617,327.200 262.000 C 327.860 261.383,328.400 260.631,328.400 260.328 C 328.400 260.025,328.760 259.517,329.200 259.200 C 329.640 258.883,330.000 258.433,330.000 258.200 C 330.000 257.967,330.360 257.517,330.800 257.200 C 331.240 256.883,331.600 256.393,331.600 256.112 C 331.600 255.830,331.780 255.600,332.000 255.600 C 332.220 255.600,332.400 255.330,332.400 255.000 C 332.400 254.670,332.550 254.400,332.732 254.400 C 332.915 254.400,333.320 253.905,333.632 253.300 C 333.945 252.695,334.515 251.851,334.900 251.425 C 335.285 250.998,335.600 250.496,335.600 250.308 C 335.600 250.120,335.960 249.580,336.400 249.108 C 336.840 248.636,337.200 248.013,337.200 247.725 C 337.200 247.436,337.380 247.200,337.600 247.200 C 337.820 247.200,338.000 246.964,338.000 246.675 C 338.000 246.387,338.360 245.764,338.800 245.292 C 339.240 244.820,339.600 244.156,339.600 243.817 C 339.600 243.478,339.753 243.200,339.939 243.200 C 340.126 243.200,340.618 242.435,341.034 241.500 C 341.450 240.565,342.107 239.451,342.495 239.025 C 342.883 238.598,343.200 238.013,343.200 237.725 C 343.200 237.436,343.380 237.200,343.600 237.200 C 343.820 237.200,344.000 236.840,344.000 236.400 C 344.000 235.960,344.180 235.600,344.400 235.600 C 344.620 235.600,344.800 235.330,344.800 235.000 C 344.800 234.670,344.980 234.400,345.200 234.400 C 345.420 234.400,345.600 234.130,345.600 233.800 C 345.600 233.470,345.780 233.200,346.000 233.200 C 346.220 233.200,346.400 232.840,346.400 232.400 C 346.400 231.960,346.580 231.600,346.800 231.600 C 347.020 231.600,347.200 231.240,347.200 230.800 C 347.200 230.360,347.380 230.000,347.600 230.000 C 347.820 230.000,348.000 229.640,348.000 229.200 C 348.000 228.760,348.180 228.400,348.400 228.400 C 348.620 228.400,348.800 228.040,348.800 227.600 C 348.800 227.160,348.980 226.800,349.200 226.800 C 349.420 226.800,349.600 226.440,349.600 226.000 C 349.600 225.560,349.780 225.200,350.000 225.200 C 350.220 225.200,350.400 224.930,350.400 224.600 C 350.400 224.270,350.580 224.000,350.800 224.000 C 351.020 224.000,351.200 223.640,351.200 223.200 C 351.200 222.760,351.380 222.400,351.600 222.400 C 351.820 222.400,352.000 222.040,352.000 221.600 C 352.000 221.160,352.180 220.800,352.400 220.800 C 352.620 220.800,352.800 220.440,352.800 220.000 C 352.800 219.560,352.980 219.200,353.200 219.200 C 353.420 219.200,353.600 218.840,353.600 218.400 C 353.600 217.960,353.780 217.600,354.000 217.600 C 354.220 217.600,354.400 217.240,354.400 216.800 C 354.400 216.360,354.580 216.000,354.800 216.000 C 355.020 216.000,355.200 215.764,355.200 215.475 C 355.200 215.002,356.309 212.353,357.164 210.787 C 357.348 210.450,357.625 209.597,357.780 208.891 C 357.935 208.186,358.228 207.506,358.431 207.381 C 358.634 207.255,358.800 206.713,358.800 206.176 C 358.800 205.639,358.980 205.200,359.200 205.200 C 359.420 205.200,359.600 204.840,359.600 204.400 C 359.600 203.960,359.780 203.600,360.000 203.600 C 360.220 203.600,360.400 203.060,360.400 202.400 C 360.400 201.740,360.580 201.200,360.800 201.200 C 361.020 201.200,361.200 200.660,361.200 200.000 C 361.200 199.340,361.380 198.800,361.600 198.800 C 361.820 198.800,362.000 198.440,362.000 198.000 C 362.000 197.560,362.180 197.200,362.400 197.200 C 362.620 197.200,362.800 196.660,362.800 196.000 C 362.800 195.340,362.980 194.800,363.200 194.800 C 363.420 194.800,363.600 194.260,363.600 193.600 C 363.600 192.940,363.780 192.400,364.000 192.400 C 364.220 192.400,364.400 191.860,364.400 191.200 C 364.400 190.540,364.580 190.000,364.800 190.000 C 365.020 190.000,365.200 189.561,365.200 189.024 C 365.200 188.487,365.380 187.936,365.600 187.800 C 365.820 187.664,366.000 187.034,366.000 186.400 C 366.000 185.766,366.180 185.136,366.400 185.000 C 366.620 184.864,366.800 184.223,366.800 183.576 C 366.800 182.929,366.980 182.400,367.200 182.400 C 367.420 182.400,367.600 181.680,367.600 180.800 C 367.600 179.920,367.780 179.200,368.000 179.200 C 368.220 179.200,368.400 178.480,368.400 177.600 C 368.400 176.720,368.580 176.000,368.800 176.000 C 369.020 176.000,369.200 175.406,369.200 174.680 C 369.200 173.954,369.367 173.189,369.571 172.980 C 369.776 172.771,370.001 171.988,370.071 171.240 C 370.142 170.493,370.470 169.756,370.800 169.603 C 371.130 169.450,371.803 169.116,372.295 168.862 C 372.787 168.608,373.375 168.400,373.602 168.400 C 374.254 168.400,379.200 163.282,379.200 162.607 C 379.200 162.273,379.380 162.000,379.600 162.000 C 379.820 162.000,380.000 161.280,380.000 160.400 C 380.000 159.520,380.180 158.800,380.400 158.800 C 380.620 158.800,380.800 158.350,380.800 157.800 C 380.800 157.250,380.980 156.800,381.200 156.800 C 381.420 156.800,381.600 156.513,381.600 156.163 C 381.600 155.333,386.533 150.400,387.363 150.400 C 387.713 150.400,388.000 150.220,388.000 150.000 C 388.000 149.780,388.439 149.600,388.976 149.600 C 389.513 149.600,390.064 149.420,390.200 149.200 C 390.336 148.980,391.067 148.800,391.824 148.800 C 392.581 148.800,393.200 148.620,393.200 148.400 C 393.200 148.180,393.487 148.000,393.837 148.000 C 394.187 148.000,395.672 146.802,397.137 145.337 L 399.800 142.675 399.800 136.799 C 399.800 132.368,399.653 130.638,399.201 129.762 C 398.391 128.189,394.797 124.800,393.939 124.800 C 393.558 124.800,393.136 124.620,393.000 124.400 C 392.864 124.180,392.223 124.000,391.576 124.000 C 390.929 124.000,390.400 123.820,390.400 123.600 C 390.400 123.380,389.860 123.200,389.200 123.200 C 388.540 123.200,388.000 123.020,388.000 122.800 C 388.000 122.580,387.713 122.400,387.363 122.400 C 386.533 122.400,381.600 117.467,381.600 116.637 C 381.600 116.287,381.420 116.000,381.200 116.000 C 380.980 116.000,380.800 115.460,380.800 114.800 C 380.800 114.140,380.620 113.600,380.400 113.600 C 380.180 113.600,380.000 112.970,380.000 112.200 C 380.000 111.430,379.820 110.800,379.600 110.800 C 379.380 110.800,379.200 110.527,379.200 110.193 C 379.200 109.283,374.148 104.400,373.207 104.400 C 372.763 104.400,372.400 104.220,372.400 104.000 C 372.400 103.780,372.040 103.600,371.600 103.600 C 371.075 103.600,370.800 103.333,370.800 102.824 C 370.800 102.397,370.620 101.936,370.400 101.800 C 370.180 101.664,370.000 100.933,370.000 100.176 C 370.000 99.419,369.820 98.800,369.600 98.800 C 369.380 98.800,369.200 98.181,369.200 97.424 C 369.200 96.667,369.020 95.936,368.800 95.800 C 368.580 95.664,368.400 95.113,368.400 94.576 C 368.400 94.039,368.220 93.600,368.000 93.600 C 367.780 93.600,367.600 93.238,367.600 92.795 C 367.600 92.352,367.420 91.632,367.200 91.195 C 366.980 90.758,366.620 90.042,366.400 89.605 C 366.180 89.168,366.000 88.448,366.000 88.005 C 366.000 87.562,365.820 87.200,365.600 87.200 C 365.380 87.200,365.200 86.840,365.200 86.400 C 365.200 85.960,365.020 85.600,364.800 85.600 C 364.580 85.600,364.400 85.161,364.400 84.624 C 364.400 84.087,364.220 83.536,364.000 83.400 C 363.780 83.264,363.600 82.803,363.600 82.376 C 363.600 81.949,363.420 81.600,363.200 81.600 C 362.980 81.600,362.800 81.240,362.800 80.800 C 362.800 80.360,362.620 80.000,362.400 80.000 C 362.180 80.000,362.000 79.640,362.000 79.200 C 362.000 78.760,361.820 78.400,361.600 78.400 C 361.380 78.400,361.200 78.130,361.200 77.800 C 361.200 77.470,361.020 77.200,360.800 77.200 C 360.580 77.200,360.400 76.964,360.400 76.675 C 360.400 76.387,360.040 75.764,359.600 75.292 C 359.160 74.820,358.800 74.156,358.800 73.817 C 358.800 73.478,358.620 73.200,358.400 73.200 C 358.180 73.200,358.000 72.868,358.000 72.461 C 358.000 72.055,357.640 71.307,357.200 70.800 C 356.760 70.293,356.400 69.753,356.400 69.601 C 356.400 69.449,355.950 68.801,355.400 68.162 C 354.851 67.523,354.401 66.863,354.400 66.696 C 354.400 66.529,353.860 65.828,353.200 65.137 C 352.540 64.446,352.000 63.731,352.000 63.547 C 352.000 62.608,337.232 48.000,336.282 48.000 C 336.083 48.000,335.417 47.460,334.800 46.800 C 334.183 46.140,333.473 45.600,333.221 45.600 C 332.970 45.600,332.328 45.164,331.795 44.631 C 331.262 44.098,330.460 43.546,330.013 43.404 C 329.566 43.262,329.200 42.993,329.200 42.805 C 329.200 42.617,328.660 42.345,328.000 42.200 C 327.340 42.055,326.800 41.771,326.800 41.568 C 326.800 41.366,326.522 41.200,326.183 41.200 C 325.844 41.200,325.180 40.840,324.708 40.400 C 324.236 39.960,323.613 39.600,323.325 39.600 C 323.036 39.600,322.800 39.454,322.800 39.275 C 322.800 39.096,322.170 38.702,321.400 38.400 C 320.630 38.098,320.000 37.704,320.000 37.525 C 320.000 37.346,319.640 37.200,319.200 37.200 C 318.760 37.200,318.400 37.020,318.400 36.800 C 318.400 36.580,318.051 36.400,317.624 36.400 C 317.197 36.400,316.736 36.220,316.600 36.000 C 316.464 35.780,315.913 35.600,315.376 35.600 C 314.839 35.600,314.400 35.420,314.400 35.200 C 314.400 34.980,314.040 34.800,313.600 34.800 C 313.160 34.800,312.800 34.653,312.800 34.472 C 312.800 34.292,311.900 33.900,310.800 33.600 C 309.700 33.300,308.800 32.908,308.800 32.728 C 308.800 32.547,308.260 32.400,307.600 32.400 C 306.940 32.400,306.400 32.220,306.400 32.000 C 306.400 31.780,305.961 31.600,305.424 31.600 C 304.887 31.600,304.336 31.420,304.200 31.200 C 304.064 30.980,303.333 30.800,302.576 30.800 C 301.819 30.800,301.200 30.620,301.200 30.400 C 301.200 30.180,300.671 30.000,300.024 30.000 C 299.377 30.000,298.736 29.820,298.600 29.600 C 298.278 29.079,294.122 29.079,293.800 29.600 C 293.664 29.820,293.285 30.000,292.958 30.000 C 292.193 30.000,290.400 31.786,290.400 32.548 C 290.400 32.870,290.175 33.238,289.900 33.367 C 289.500 33.553,289.500 33.647,289.900 33.833 C 290.175 33.962,290.401 34.547,290.402 35.133 C 290.410 38.805,292.109 40.750,296.400 41.998 C 328.834 51.433,350.738 73.653,358.238 104.731 L 358.889 107.427 357.717 109.214 C 357.072 110.196,356.309 111.810,356.021 112.800 C 354.062 119.540,350.569 123.028,344.000 124.804 C 331.792 128.104,332.473 144.048,345.000 148.220 C 349.178 149.611,349.878 150.003,351.874 152.068 C 353.617 153.872,355.599 157.377,355.601 158.658 C 355.602 159.066,356.239 160.660,357.016 162.200 C 358.494 165.125,358.540 165.721,357.590 169.600 C 357.402 170.370,357.036 171.900,356.778 173.000 C 356.519 174.100,356.153 175.540,355.962 176.200 C 355.772 176.860,355.227 178.750,354.751 180.400 C 347.426 205.797,333.696 232.695,316.059 256.200 C 312.289 261.224,307.391 267.472,306.808 268.000 C 306.687 268.110,306.074 268.830,305.446 269.600 C 297.776 279.013,280.365 296.514,271.214 304.009 C 270.011 304.994,268.661 306.133,268.214 306.539 C 267.046 307.600,257.262 315.244,255.600 316.393 C 254.830 316.926,254.110 317.474,254.000 317.611 C 253.890 317.748,252.630 318.648,251.200 319.611 C 249.770 320.573,248.420 321.515,248.200 321.704 C 247.221 322.542,238.132 328.357,233.400 331.171 C 222.387 337.723,220.994 338.223,224.606 334.331 C 230.377 328.112,242.800 312.153,242.800 310.958 C 242.800 310.841,243.321 309.987,243.957 309.062 C 248.689 302.185,256.255 287.225,259.970 277.400 C 260.470 276.080,261.022 274.640,261.199 274.200 C 261.375 273.760,261.736 272.770,262.000 272.000 C 262.264 271.230,262.624 270.240,262.799 269.800 C 263.702 267.532,266.475 257.995,267.277 254.400 C 267.498 253.410,267.842 251.880,268.041 251.000 C 273.977 224.807,272.616 199.859,264.023 177.317 C 259.048 164.269,247.406 150.273,237.400 145.312 C 216.071 134.738,182.250 146.278,160.945 171.400 C 157.532 175.424,153.677 180.560,153.289 181.600 C 153.166 181.930,152.578 182.920,151.982 183.800 C 150.035 186.677,146.423 194.610,144.776 199.625 C 142.817 205.589,142.537 206.166,142.266 204.794 C 140.259 194.631,139.597 188.766,139.605 181.231 C 139.610 176.571,140.458 165.858,141.174 161.400 C 142.089 155.710,143.389 149.262,144.360 145.600 C 145.322 141.970,146.065 139.296,146.416 138.200 C 149.227 129.419,149.284 129.264,152.423 121.600 C 155.696 113.610,161.232 102.804,164.448 98.130 C 165.082 97.209,165.600 96.334,165.600 96.185 C 165.600 95.840,170.345 89.002,172.946 85.600 C 183.759 71.457,198.445 57.939,211.200 50.390 C 217.955 46.392,221.617 44.573,224.434 43.817 C 238.742 39.978,255.886 37.796,269.400 38.094 C 274.686 38.211,276.323 37.698,277.367 35.600 C 277.641 35.050,278.165 34.000,278.532 33.268 C 279.273 31.790,279.419 30.000,278.800 30.000 C 278.580 30.000,278.400 29.722,278.400 29.382 C 278.400 28.685,276.966 27.131,275.696 26.451 C 274.597 25.863,250.962 25.815,250.600 26.400 M368.628 117.430 C 370.969 126.006,376.772 132.026,385.581 135.013 C 388.791 136.101,388.885 137.600,385.742 137.600 C 380.640 137.600,368.800 149.440,368.800 154.542 C 368.800 156.857,367.245 157.741,366.646 155.767 C 363.838 146.518,357.980 140.372,349.400 137.675 C 348.018 137.240,347.000 136.690,347.000 136.378 C 347.000 136.074,348.056 135.469,349.400 135.003 C 357.558 132.173,366.400 123.232,366.400 117.813 C 366.400 115.386,367.996 115.112,368.628 117.430 M226.528 153.636 C 241.366 157.645,250.613 172.498,247.796 187.800 C 241.425 222.413,197.054 255.760,171.000 245.516 C 157.476 240.199,151.194 227.679,153.982 211.600 C 154.192 210.390,154.474 208.770,154.609 208.000 C 154.744 207.230,154.997 206.240,155.172 205.800 C 155.346 205.360,155.706 204.280,155.971 203.400 C 156.236 202.520,156.645 201.350,156.880 200.800 C 157.115 200.250,157.441 199.440,157.606 199.000 C 160.661 190.813,170.550 177.009,177.320 171.481 C 178.343 170.646,179.410 169.746,179.690 169.481 C 181.011 168.234,188.603 162.800,189.024 162.800 C 189.151 162.800,190.008 162.294,190.928 161.675 C 193.344 160.050,199.853 156.964,203.000 155.952 C 203.880 155.668,204.771 155.293,204.980 155.118 C 205.189 154.943,205.853 154.800,206.456 154.800 C 207.059 154.800,207.649 154.644,207.767 154.454 C 207.987 154.098,209.614 153.757,213.800 153.191 C 216.836 152.781,224.331 153.043,226.528 153.636 M33.354 244.233 C 36.292 253.910,42.103 259.714,51.800 262.655 C 52.460 262.855,53.000 263.270,53.000 263.576 C 53.000 263.883,52.460 264.297,51.800 264.498 C 46.588 266.081,41.365 269.262,38.867 272.373 C 38.060 273.378,37.310 274.290,37.200 274.400 C 36.503 275.097,34.659 278.900,34.000 281.000 C 33.164 283.664,32.833 284.400,32.473 284.400 C 32.058 284.400,31.200 282.609,31.200 281.742 C 31.200 276.475,22.233 267.416,14.600 264.972 C 11.582 264.006,11.057 263.245,13.000 262.655 C 20.774 260.298,26.131 256.112,29.198 250.000 C 29.916 248.570,30.660 247.087,30.851 246.705 C 31.043 246.323,31.200 245.750,31.200 245.431 C 31.200 243.023,32.729 242.172,33.354 244.233 " stroke="none" fill="#0b0a0c" fill-rule="evenodd"></path><path id="path1" d="M173.401 65.528 C 172.746 65.898,170.623 67.145,168.682 68.300 C 166.742 69.455,165.061 70.400,164.949 70.400 C 164.836 70.400,163.959 70.940,163.000 71.600 C 162.041 72.260,161.063 72.800,160.828 72.800 C 160.593 72.800,160.400 72.958,160.400 73.151 C 160.400 73.345,159.860 73.727,159.200 74.000 C 158.540 74.273,158.000 74.655,158.000 74.849 C 158.000 75.042,157.730 75.200,157.400 75.200 C 157.070 75.200,156.800 75.380,156.800 75.600 C 156.800 75.820,156.612 76.000,156.383 76.000 C 156.154 76.000,155.580 76.360,155.108 76.800 C 154.636 77.240,154.013 77.600,153.725 77.600 C 153.436 77.600,153.200 77.780,153.200 78.000 C 153.200 78.220,153.022 78.400,152.805 78.400 C 152.587 78.400,152.092 78.658,151.705 78.974 C 150.277 80.137,147.334 82.283,144.943 83.905 C 143.591 84.822,142.241 85.809,141.943 86.099 C 141.644 86.389,140.770 87.062,140.000 87.594 C 139.230 88.126,138.510 88.671,138.400 88.804 C 138.290 88.937,137.821 89.306,137.357 89.623 C 136.604 90.139,132.953 93.165,131.834 94.202 C 131.595 94.423,130.410 95.412,129.200 96.400 C 127.990 97.388,126.803 98.377,126.562 98.598 C 126.321 98.819,124.521 100.440,122.562 102.200 C 118.023 106.277,105.456 118.855,101.800 122.979 C 100.260 124.716,98.820 126.336,98.600 126.578 C 98.110 127.118,94.431 131.449,93.371 132.734 C 92.947 133.247,92.265 134.057,91.855 134.534 C 91.445 135.010,90.636 136.030,90.057 136.800 C 89.478 137.570,88.902 138.290,88.777 138.400 C 88.372 138.756,82.591 146.539,81.201 148.600 C 80.460 149.700,79.737 150.690,79.596 150.800 C 79.455 150.910,78.556 152.170,77.598 153.600 C 76.639 155.030,75.708 156.260,75.528 156.333 C 75.347 156.407,75.200 156.626,75.200 156.820 C 75.200 157.171,72.390 161.758,71.608 162.683 C 71.384 162.949,71.200 163.247,71.200 163.345 C 71.200 163.443,69.891 165.745,68.291 168.462 C 66.691 171.178,65.116 173.940,64.792 174.600 C 64.467 175.260,64.107 175.890,63.991 176.000 C 63.875 176.110,62.977 177.820,61.994 179.800 C 61.011 181.780,60.071 183.460,59.904 183.533 C 59.737 183.607,59.600 184.012,59.600 184.433 C 59.600 184.855,59.420 185.200,59.200 185.200 C 58.980 185.200,58.800 185.560,58.800 186.000 C 58.800 186.440,58.620 186.800,58.400 186.800 C 58.180 186.800,58.000 187.053,58.000 187.362 C 58.000 187.671,57.645 188.616,57.211 189.462 C 55.875 192.063,54.559 195.171,52.407 200.800 C 51.271 203.770,50.183 206.560,49.989 207.000 C 49.795 207.440,49.068 209.600,48.373 211.800 C 47.679 214.000,46.951 216.113,46.755 216.495 C 46.560 216.877,46.400 217.541,46.400 217.971 C 46.400 218.401,46.220 218.864,46.000 219.000 C 45.780 219.136,45.600 219.766,45.600 220.400 C 45.600 221.034,45.420 221.664,45.200 221.800 C 44.980 221.936,44.800 222.656,44.800 223.400 C 44.800 224.144,44.640 224.852,44.444 224.973 C 44.108 225.180,43.872 226.193,43.342 229.703 C 43.218 230.529,42.955 231.305,42.758 231.426 C 41.876 231.971,42.727 237.187,43.700 237.197 C 43.865 237.199,44.000 237.549,44.000 237.976 C 44.000 238.403,44.180 238.864,44.400 239.000 C 44.620 239.136,44.800 239.689,44.800 240.229 C 44.800 240.769,44.960 241.523,45.156 241.905 C 45.352 242.287,45.930 243.473,46.440 244.540 C 47.863 247.519,50.572 249.602,54.600 250.816 C 55.480 251.081,56.513 251.456,56.895 251.649 C 57.277 251.842,57.862 252.000,58.195 252.000 C 58.528 252.000,58.800 252.180,58.800 252.400 C 58.800 252.620,59.056 252.800,59.369 252.800 C 62.969 252.800,66.444 262.594,64.660 267.715 C 63.557 270.883,59.399 275.200,57.452 275.200 C 57.119 275.200,56.736 275.380,56.600 275.600 C 56.464 275.820,55.911 276.000,55.371 276.000 C 54.831 276.000,54.077 276.159,53.695 276.353 C 53.313 276.548,52.481 276.951,51.848 277.249 C 49.862 278.183,47.403 280.644,46.439 282.661 C 45.929 283.727,45.352 284.913,45.156 285.295 C 44.960 285.677,44.800 286.264,44.800 286.599 C 44.800 287.508,43.188 290.868,42.250 291.917 C 41.565 292.682,41.509 292.963,41.914 293.612 C 42.181 294.039,42.400 294.831,42.400 295.371 C 42.400 295.911,42.580 296.464,42.800 296.600 C 43.020 296.736,43.200 297.366,43.200 298.000 C 43.200 298.634,43.380 299.264,43.600 299.400 C 43.820 299.536,44.000 300.076,44.000 300.600 C 44.000 301.124,44.180 301.664,44.400 301.800 C 44.620 301.936,44.800 302.399,44.800 302.829 C 44.800 303.259,44.959 303.923,45.153 304.305 C 45.348 304.687,45.684 305.450,45.900 306.000 C 46.116 306.550,46.473 307.450,46.693 308.000 C 48.867 313.440,55.382 324.710,58.254 328.000 C 62.962 333.393,66.578 337.081,69.742 339.716 C 70.591 340.422,71.825 341.495,72.485 342.100 C 73.145 342.705,73.833 343.200,74.014 343.200 C 74.195 343.200,74.615 343.472,74.948 343.805 C 76.823 345.680,88.024 351.731,94.000 354.097 C 94.550 354.315,95.313 354.652,95.695 354.847 C 96.077 355.041,96.741 355.200,97.171 355.200 C 97.601 355.200,98.064 355.380,98.200 355.600 C 98.336 355.820,98.977 356.000,99.624 356.000 C 100.271 356.000,100.800 356.180,100.800 356.400 C 100.800 356.620,101.329 356.800,101.976 356.800 C 102.623 356.800,103.264 356.980,103.400 357.200 C 103.536 357.420,103.961 357.600,104.345 357.600 C 105.242 357.600,108.000 360.114,108.000 360.930 C 108.000 361.273,108.180 361.664,108.400 361.800 C 108.620 361.936,108.800 362.937,108.800 364.024 L 108.800 366.000 110.200 366.000 C 110.970 366.000,111.600 366.180,111.600 366.400 C 111.600 366.626,112.733 366.800,114.200 366.800 C 115.667 366.800,116.800 366.974,116.800 367.200 C 116.800 367.420,117.340 367.600,118.000 367.600 C 118.921 367.600,119.200 367.420,119.200 366.824 C 119.200 366.397,119.380 365.936,119.600 365.800 C 119.820 365.664,120.000 365.239,120.000 364.855 C 120.000 362.368,124.094 360.625,129.325 360.884 C 133.993 361.115,147.552 360.596,152.000 360.016 C 153.650 359.801,156.260 359.434,157.800 359.201 C 159.340 358.968,161.410 358.675,162.400 358.550 C 163.390 358.425,164.371 358.160,164.580 357.961 C 164.789 357.763,165.633 357.600,166.456 357.600 C 167.279 357.600,168.064 357.420,168.200 357.200 C 168.336 356.980,169.146 356.800,170.000 356.800 C 170.854 356.800,171.652 356.640,171.773 356.444 C 171.894 356.249,172.579 355.987,173.296 355.863 C 177.232 355.183,177.988 354.884,182.900 352.062 C 183.725 351.588,185.075 350.819,185.900 350.353 C 189.349 348.404,197.422 342.906,199.037 341.406 C 199.277 341.183,200.070 340.550,200.800 340.000 C 201.530 339.450,202.323 338.818,202.563 338.597 C 202.804 338.375,204.336 337.025,205.969 335.597 C 209.821 332.228,218.374 323.419,221.438 319.666 C 221.857 319.153,222.470 318.412,222.800 318.020 C 223.130 317.627,223.850 316.714,224.400 315.990 C 224.950 315.266,225.586 314.477,225.813 314.237 C 226.040 313.996,226.662 313.170,227.194 312.400 C 227.726 311.630,228.275 310.910,228.414 310.800 C 228.755 310.530,235.357 300.458,236.342 298.704 C 236.772 297.937,237.367 296.880,237.662 296.355 C 237.958 295.830,238.290 295.310,238.400 295.200 C 238.848 294.752,244.108 284.491,245.281 281.776 C 247.190 277.361,249.310 272.096,249.842 270.450 C 250.171 269.432,250.599 268.240,250.794 267.800 C 250.988 267.360,251.364 266.280,251.629 265.400 C 251.894 264.520,252.245 263.440,252.410 263.000 C 252.574 262.560,252.934 261.390,253.208 260.400 C 254.227 256.731,254.510 255.778,254.851 254.881 C 255.043 254.376,255.200 253.441,255.200 252.805 C 255.200 252.168,255.380 251.536,255.600 251.400 C 255.820 251.264,256.000 250.544,256.000 249.800 C 256.000 249.056,256.180 248.336,256.400 248.200 C 256.620 248.064,256.800 247.189,256.800 246.256 C 256.800 245.323,256.963 244.389,257.163 244.180 C 257.363 243.971,257.628 242.900,257.752 241.800 C 257.876 240.700,258.164 238.450,258.391 236.800 C 259.702 227.293,259.999 218.093,259.265 209.800 C 258.479 200.919,258.341 199.811,257.965 199.420 C 257.764 199.211,257.599 198.311,257.598 197.420 L 257.595 195.800 256.998 196.946 C 256.669 197.576,256.400 198.510,256.400 199.022 C 256.400 199.534,256.220 200.064,256.000 200.200 C 255.780 200.336,255.600 200.799,255.600 201.229 C 255.600 201.659,255.441 202.323,255.247 202.705 C 255.053 203.087,254.305 204.840,253.586 206.600 C 251.339 212.098,245.511 222.257,244.330 222.733 C 244.149 222.807,244.000 223.095,244.000 223.374 C 244.000 223.653,243.505 224.407,242.900 225.050 C 242.295 225.692,241.271 226.934,240.624 227.809 C 239.081 229.895,230.647 238.319,228.600 239.819 C 227.720 240.464,226.730 241.276,226.400 241.624 C 226.070 241.972,224.630 243.041,223.200 244.001 C 221.770 244.960,220.540 245.892,220.467 246.072 C 220.393 246.253,220.156 246.400,219.939 246.400 C 219.722 246.400,218.792 246.908,217.872 247.528 C 213.829 250.255,204.586 254.520,199.600 255.959 C 198.610 256.244,197.487 256.640,197.105 256.839 C 196.723 257.038,195.904 257.200,195.285 257.200 C 194.666 257.200,193.989 257.362,193.780 257.559 C 192.263 258.992,172.597 259.690,171.763 258.340 C 171.647 258.153,170.944 258.000,170.200 258.000 C 169.456 258.000,168.736 257.820,168.600 257.600 C 168.464 257.380,167.924 257.200,167.400 257.200 C 166.876 257.200,166.336 257.020,166.200 256.800 C 166.064 256.580,165.622 256.400,165.217 256.400 C 164.364 256.400,161.188 254.782,157.780 252.611 C 154.443 250.485,146.815 242.729,144.885 239.500 C 144.523 238.895,144.086 238.400,143.914 238.400 C 143.741 238.400,143.600 238.164,143.600 237.875 C 143.600 237.587,143.285 236.993,142.900 236.555 C 142.243 235.808,141.941 235.335,140.700 233.100 C 140.425 232.605,140.100 232.110,139.979 232.000 C 139.577 231.637,134.800 221.721,134.800 221.250 C 134.800 220.997,134.629 220.477,134.419 220.095 C 132.701 216.965,129.827 205.401,128.728 197.200 C 128.105 192.545,127.853 170.778,128.377 166.800 C 128.623 164.930,129.014 161.960,129.247 160.200 C 130.117 153.604,132.038 144.587,134.061 137.600 C 134.283 136.830,134.562 135.703,134.679 135.095 C 134.796 134.487,135.051 133.892,135.246 133.771 C 135.441 133.651,135.600 133.124,135.600 132.600 C 135.600 132.076,135.780 131.536,136.000 131.400 C 136.220 131.264,136.400 130.724,136.400 130.200 C 136.400 129.676,136.580 129.136,136.800 129.000 C 137.020 128.864,137.200 128.401,137.200 127.971 C 137.200 127.541,137.359 126.877,137.553 126.495 C 137.748 126.113,138.084 125.350,138.300 124.800 C 138.516 124.250,138.897 123.305,139.146 122.700 C 139.396 122.095,139.804 121.105,140.054 120.500 C 140.303 119.895,140.684 118.950,140.900 118.400 C 141.116 117.850,141.452 117.087,141.647 116.705 C 141.841 116.323,142.000 115.738,142.000 115.405 C 142.000 115.072,142.180 114.800,142.400 114.800 C 142.620 114.800,142.800 114.561,142.800 114.268 C 142.800 113.565,149.102 100.812,151.063 97.549 C 151.908 96.142,152.855 94.497,153.168 93.895 C 153.480 93.293,153.885 92.800,154.068 92.800 C 154.250 92.800,154.400 92.615,154.400 92.388 C 154.400 91.589,165.784 75.209,167.180 74.000 C 167.307 73.890,168.215 72.810,169.198 71.600 C 170.181 70.390,171.259 69.124,171.593 68.786 C 174.999 65.341,175.577 64.299,173.401 65.528 " stroke="none" fill="#7494dc" fill-rule="evenodd"></path><path id="path2" d="M278.506 34.327 C 278.025 35.485,277.113 36.731,276.284 37.363 L 274.878 38.435 266.339 38.588 C 252.067 38.842,240.504 40.258,229.000 43.160 C 228.120 43.382,226.680 43.735,225.800 43.945 C 212.530 47.105,187.730 66.606,174.589 84.213 C 173.938 85.086,173.305 85.890,173.183 86.000 C 173.061 86.110,172.529 86.830,172.000 87.600 C 171.471 88.370,170.927 89.090,170.791 89.200 C 169.752 90.038,162.877 101.257,159.515 107.600 C 158.757 109.030,157.942 110.560,157.704 111.000 C 157.207 111.917,154.940 116.756,153.482 120.012 C 150.654 126.325,146.371 139.194,144.607 146.676 C 142.633 155.049,142.528 155.602,141.212 164.498 C 139.713 174.627,139.892 189.601,141.623 199.000 C 141.867 200.320,142.188 202.120,142.337 203.000 L 142.608 204.600 143.051 203.400 C 143.295 202.740,143.887 200.940,144.368 199.400 C 144.848 197.860,145.393 196.240,145.580 195.800 C 145.766 195.360,146.222 194.280,146.594 193.400 C 148.675 188.468,153.979 179.264,156.525 176.165 C 156.871 175.744,158.313 173.960,159.731 172.200 C 162.058 169.310,169.510 161.792,172.007 159.814 C 179.013 154.266,192.866 146.000,195.159 146.000 C 195.408 146.000,195.923 145.841,196.305 145.647 C 197.854 144.859,199.928 144.088,202.000 143.531 C 202.770 143.324,204.030 142.970,204.800 142.744 C 211.957 140.644,229.788 140.439,231.026 142.442 C 231.148 142.639,231.676 142.800,232.200 142.800 C 232.724 142.800,233.264 142.980,233.400 143.200 C 233.536 143.420,233.909 143.600,234.228 143.600 C 238.310 143.600,247.583 151.120,254.953 160.409 C 263.112 170.691,268.995 186.536,271.288 204.400 C 271.937 209.460,271.928 229.020,271.274 234.200 C 270.352 241.503,269.665 245.802,268.845 249.400 C 268.645 250.280,268.291 251.900,268.058 253.000 C 266.882 258.569,262.778 271.931,260.777 276.700 C 260.349 277.722,259.763 279.180,259.251 280.500 C 256.956 286.413,249.352 301.276,245.086 308.187 C 242.222 312.827,233.546 325.040,232.432 326.000 C 232.304 326.110,231.480 327.096,230.600 328.191 C 229.720 329.286,227.940 331.316,226.644 332.702 C 225.348 334.088,224.382 335.315,224.496 335.430 C 224.732 335.665,228.688 333.553,233.329 330.714 C 235.051 329.661,236.540 328.800,236.640 328.800 C 237.137 328.800,256.938 315.198,257.600 314.402 C 257.710 314.270,258.430 313.726,259.200 313.194 C 259.970 312.662,260.841 311.993,261.135 311.707 C 261.429 311.422,262.326 310.696,263.129 310.094 C 263.932 309.492,265.041 308.616,265.594 308.147 C 266.147 307.678,267.945 306.178,269.590 304.813 C 275.442 299.956,279.113 296.533,287.812 287.823 C 297.239 278.383,298.721 276.809,304.018 270.600 C 307.108 266.979,308.416 265.381,312.200 260.608 C 312.860 259.776,314.979 256.913,316.910 254.247 C 318.840 251.581,321.212 248.308,322.181 246.972 C 323.149 245.637,324.354 243.837,324.858 242.972 C 325.361 242.108,325.915 241.340,326.087 241.267 C 326.259 241.193,326.400 240.956,326.400 240.739 C 326.400 240.522,326.917 239.592,327.548 238.672 C 333.491 230.016,342.712 212.052,348.015 198.800 C 350.922 191.535,354.313 180.904,356.245 173.000 C 356.568 171.680,356.995 169.970,357.195 169.200 C 358.061 165.858,358.013 165.321,356.593 162.520 C 355.835 161.024,355.212 159.500,355.207 159.133 C 355.163 155.180,350.634 150.447,345.324 148.806 C 336.475 146.071,332.503 138.484,336.094 131.173 C 337.835 127.627,342.347 124.000,345.016 124.000 C 348.346 124.000,355.200 117.174,355.200 113.858 C 355.200 113.012,356.661 109.718,357.658 108.319 C 358.387 107.295,358.446 106.926,358.085 105.665 C 357.855 104.859,357.451 103.390,357.187 102.400 C 356.924 101.410,356.558 100.240,356.375 99.800 C 356.191 99.360,355.778 98.190,355.457 97.200 C 348.201 74.796,329.314 54.526,308.200 46.482 C 303.634 44.743,302.397 44.290,300.800 43.775 C 299.810 43.455,298.460 43.039,297.800 42.851 C 293.945 41.750,293.002 41.322,291.817 40.137 C 290.524 38.844,290.000 37.406,290.000 35.150 C 290.000 34.394,289.794 34.000,289.400 34.000 C 289.070 34.000,288.800 33.820,288.800 33.600 C 288.800 33.374,287.659 33.200,286.176 33.200 C 284.733 33.200,283.646 33.049,283.760 32.865 C 283.874 32.681,282.922 32.492,281.645 32.446 L 279.322 32.362 278.506 34.327 M173.800 64.990 C 172.920 65.532,172.380 65.975,172.600 65.975 C 172.820 65.975,173.332 65.723,173.739 65.415 C 174.145 65.107,174.700 64.940,174.972 65.045 C 175.244 65.149,175.467 64.957,175.467 64.617 C 175.467 64.278,175.452 64.001,175.433 64.002 C 175.415 64.003,174.680 64.448,173.800 64.990 M173.375 66.900 L 172.200 68.200 173.500 67.025 C 174.712 65.930,174.984 65.600,174.675 65.600 C 174.606 65.600,174.021 66.185,173.375 66.900 M167.700 68.446 C 166.337 69.319,165.895 69.906,167.100 69.243 C 168.018 68.739,169.456 67.627,169.200 67.619 C 169.090 67.616,168.415 67.988,167.700 68.446 M170.026 70.522 L 169.051 71.800 170.326 70.625 C 171.651 69.403,171.803 69.185,171.300 69.222 C 171.135 69.234,170.562 69.819,170.026 70.522 M165.700 75.827 C 164.985 76.784,164.400 77.690,164.400 77.841 C 164.400 77.992,165.048 77.267,165.839 76.230 C 166.631 75.193,167.216 74.287,167.139 74.217 C 167.063 74.146,166.415 74.871,165.700 75.827 M154.176 76.987 C 153.749 77.310,153.580 77.575,153.800 77.575 C 154.020 77.575,154.549 77.310,154.976 76.987 C 155.404 76.664,155.573 76.400,155.353 76.400 C 155.133 76.400,154.604 76.664,154.176 76.987 M145.826 82.838 C 144.300 83.917,143.185 84.800,143.348 84.800 C 143.761 84.800,148.295 81.693,148.599 81.202 C 148.950 80.634,148.907 80.659,145.826 82.838 M153.257 93.657 C 152.975 94.109,152.832 94.566,152.940 94.673 C 153.047 94.781,153.344 94.478,153.600 94.000 C 154.205 92.870,153.924 92.590,153.257 93.657 M130.171 95.303 L 129.000 96.597 130.200 95.599 C 130.860 95.049,131.475 94.555,131.567 94.500 C 131.658 94.445,131.645 94.312,131.538 94.204 C 131.430 94.096,130.815 94.591,130.171 95.303 M151.000 97.600 C 150.659 98.260,150.469 98.800,150.579 98.800 C 150.689 98.800,151.059 98.260,151.400 97.600 C 151.741 96.940,151.931 96.400,151.821 96.400 C 151.711 96.400,151.341 96.940,151.000 97.600 M124.175 100.500 L 123.000 101.800 124.300 100.625 C 125.512 99.530,125.784 99.200,125.475 99.200 C 125.406 99.200,124.821 99.785,124.175 100.500 M120.383 103.900 L 118.600 105.800 120.593 104.000 C 121.688 103.010,122.663 102.155,122.759 102.100 C 122.855 102.045,122.761 102.000,122.550 102.000 C 122.339 102.000,121.364 102.855,120.383 103.900 M111.787 112.100 L 109.400 114.600 111.900 112.213 C 114.222 109.995,114.583 109.600,114.287 109.600 C 114.226 109.600,113.101 110.725,111.787 112.100 M103.206 120.994 C 102.463 121.761,101.932 122.450,102.027 122.525 C 102.122 122.600,102.806 121.973,103.546 121.131 C 105.229 119.218,105.012 119.131,103.206 120.994 M99.807 124.793 C 98.952 125.669,98.330 126.445,98.426 126.518 C 98.522 126.591,99.298 125.874,100.152 124.925 C 102.101 122.759,101.877 122.673,99.807 124.793 M94.975 130.500 L 93.800 131.800 95.100 130.625 C 96.312 129.530,96.584 129.200,96.275 129.200 C 96.206 129.200,95.621 129.785,94.975 130.500 M134.249 136.615 C 134.112 136.973,134.015 137.566,134.034 137.933 C 134.053 138.300,134.227 138.069,134.421 137.420 C 134.798 136.158,134.665 135.533,134.249 136.615 M133.449 139.415 C 133.312 139.773,133.215 140.366,133.234 140.733 C 133.253 141.100,133.427 140.869,133.621 140.220 C 133.998 138.958,133.865 138.333,133.449 139.415 M85.144 142.700 C 83.993 144.089,83.506 144.800,83.704 144.800 C 83.814 144.800,84.386 144.170,84.973 143.400 C 86.063 141.971,86.195 141.432,85.144 142.700 M80.781 148.628 C 80.089 149.634,79.586 150.519,79.662 150.596 C 79.739 150.673,80.388 149.850,81.104 148.768 C 82.746 146.287,82.473 146.169,80.781 148.628 M130.049 154.600 C 130.016 155.040,129.896 155.850,129.783 156.400 L 129.577 157.400 130.006 156.419 C 130.242 155.879,130.361 155.069,130.272 154.619 C 130.113 153.821,130.107 153.821,130.049 154.600 M129.040 160.840 C 128.893 161.757,128.852 162.585,128.947 162.680 C 129.042 162.776,129.246 162.110,129.400 161.200 C 129.554 160.290,129.596 159.462,129.493 159.360 C 129.390 159.257,129.187 159.923,129.040 160.840 M69.414 165.835 C 69.041 166.404,68.805 166.938,68.889 167.022 C 68.973 167.107,69.358 166.641,69.744 165.988 C 70.606 164.528,70.348 164.409,69.414 165.835 M128.185 168.185 C 128.030 169.423,127.990 170.523,128.095 170.629 C 128.201 170.734,128.407 169.801,128.554 168.554 C 128.700 167.307,128.741 166.207,128.643 166.110 C 128.546 166.012,128.339 166.946,128.185 168.185 M128.040 191.633 C 128.062 192.385,128.230 193.450,128.413 194.000 C 128.629 194.646,128.666 194.220,128.519 192.800 C 128.259 190.283,127.981 189.607,128.040 191.633 M128.880 198.600 C 128.880 199.040,129.024 199.850,129.200 200.400 C 129.454 201.192,129.520 201.233,129.520 200.600 C 129.520 200.160,129.376 199.350,129.200 198.800 C 128.946 198.008,128.880 197.967,128.880 198.600 M51.396 202.272 C 51.058 203.081,50.833 203.900,50.897 204.091 C 50.961 204.282,51.316 203.620,51.687 202.619 C 52.493 200.445,52.270 200.179,51.396 202.272 M258.406 203.033 C 258.409 203.455,258.595 204.070,258.818 204.400 C 259.115 204.838,259.152 204.676,258.956 203.800 C 258.627 202.329,258.398 202.010,258.406 203.033 M129.668 203.200 C 129.688 204.239,130.318 205.946,130.332 205.000 C 130.338 204.560,130.189 203.840,130.000 203.400 C 129.789 202.910,129.661 202.832,129.668 203.200 M130.658 208.000 C 130.975 209.725,131.202 210.051,131.194 208.767 C 131.191 208.235,131.011 207.530,130.794 207.200 C 130.518 206.778,130.477 207.015,130.658 208.000 M259.276 210.600 C 259.260 211.480,259.395 212.920,259.577 213.800 C 260.030 215.988,260.061 213.844,259.618 211.000 C 259.313 209.041,259.306 209.033,259.276 210.600 M134.800 221.084 C 134.800 221.651,135.963 224.400,136.202 224.400 C 136.307 224.400,136.096 223.635,135.732 222.700 C 134.995 220.807,134.800 220.469,134.800 221.084 M259.486 224.200 C 259.333 225.080,259.230 226.610,259.255 227.600 C 259.294 229.130,259.355 228.981,259.660 226.600 C 260.057 223.505,259.924 221.671,259.486 224.200 M242.893 224.400 C 242.618 224.840,242.531 225.200,242.700 225.200 C 242.869 225.200,243.232 224.840,243.507 224.400 C 243.782 223.960,243.869 223.600,243.700 223.600 C 243.531 223.600,243.168 223.960,242.893 224.400 M239.400 228.800 C 238.768 229.460,238.419 229.990,238.625 229.978 C 238.978 229.957,241.039 227.600,240.705 227.600 C 240.620 227.600,240.032 228.140,239.400 228.800 M234.589 234.100 L 231.800 237.000 234.700 234.211 C 237.394 231.620,237.783 231.200,237.489 231.200 C 237.428 231.200,236.123 232.505,234.589 234.100 M258.578 234.578 C 258.427 235.381,258.394 236.127,258.504 236.237 C 258.614 236.347,258.827 235.781,258.978 234.978 C 259.128 234.175,259.162 233.428,259.052 233.318 C 258.942 233.208,258.728 233.775,258.578 234.578 M257.849 239.815 C 257.712 240.173,257.615 240.766,257.634 241.133 C 257.653 241.500,257.827 241.269,258.021 240.620 C 258.398 239.358,258.265 238.733,257.849 239.815 M151.685 247.394 C 153.382 249.137,154.825 250.482,154.892 250.382 C 154.959 250.282,153.571 248.856,151.807 247.212 L 148.600 244.225 151.685 247.394 M215.896 248.358 C 213.460 249.787,212.919 250.344,215.000 249.280 C 216.545 248.491,218.410 247.218,218.000 247.233 C 217.890 247.237,216.943 247.743,215.896 248.358 M210.800 251.200 C 210.030 251.622,209.544 251.974,209.720 251.983 C 210.144 252.005,212.400 250.832,212.400 250.590 C 212.400 250.328,212.377 250.337,210.800 251.200 M155.869 251.232 C 156.366 251.833,158.800 253.364,158.800 253.076 C 158.800 252.983,158.035 252.402,157.100 251.785 C 156.165 251.168,155.611 250.920,155.869 251.232 M255.467 251.467 C 255.320 251.613,255.211 252.108,255.225 252.567 C 255.249 253.333,255.282 253.323,255.634 252.442 C 256.026 251.463,255.944 250.989,255.467 251.467 M60.350 253.819 C 61.016 254.380,62.020 255.384,62.581 256.050 C 63.141 256.716,63.600 257.103,63.600 256.910 C 63.600 256.414,60.032 252.800,59.543 252.800 C 59.320 252.800,59.684 253.259,60.350 253.819 M171.800 258.400 C 171.936 258.620,172.442 258.787,172.924 258.772 C 173.769 258.745,173.771 258.731,173.000 258.400 C 171.899 257.927,171.508 257.927,171.800 258.400 M188.400 258.400 L 187.400 258.720 188.400 258.754 C 188.950 258.773,189.670 258.613,190.000 258.400 C 190.764 257.906,189.942 257.906,188.400 258.400 M178.866 259.177 C 179.672 259.334,181.112 259.336,182.066 259.182 C 183.486 258.951,183.220 258.899,180.600 258.896 C 178.229 258.893,177.780 258.966,178.866 259.177 M64.658 260.400 C 64.975 262.125,65.202 262.451,65.194 261.167 C 65.191 260.635,65.011 259.930,64.794 259.600 C 64.518 259.178,64.477 259.415,64.658 260.400 M61.375 272.500 L 60.200 273.800 61.500 272.625 C 62.215 271.979,62.800 271.394,62.800 271.325 C 62.800 271.016,62.470 271.288,61.375 272.500 M48.175 279.700 L 47.000 281.000 48.300 279.825 C 49.512 278.730,49.784 278.400,49.475 278.400 C 49.406 278.400,48.821 278.985,48.175 279.700 M42.206 291.488 L 41.504 292.600 42.430 291.711 C 42.939 291.222,43.255 290.722,43.132 290.599 C 43.009 290.476,42.592 290.876,42.206 291.488 M237.014 297.435 C 236.641 298.004,236.427 298.561,236.539 298.672 C 236.650 298.783,237.029 298.318,237.381 297.637 C 238.159 296.133,237.944 296.015,237.014 297.435 M234.646 301.400 C 234.291 301.950,233.709 302.895,233.353 303.500 L 232.705 304.600 233.510 303.626 C 234.460 302.476,235.721 300.400,235.469 300.400 C 235.371 300.400,235.001 300.850,234.646 301.400 M215.629 326.108 C 212.895 329.019,211.874 330.230,213.360 328.800 C 215.926 326.330,221.042 320.791,220.741 320.808 C 220.664 320.812,218.363 323.197,215.629 326.108 M61.400 332.000 C 62.483 333.100,63.460 334.000,63.570 334.000 C 63.680 334.000,62.883 333.100,61.800 332.000 C 60.717 330.900,59.740 330.000,59.630 330.000 C 59.520 330.000,60.317 330.900,61.400 332.000 M206.000 335.644 L 203.400 338.074 206.100 335.788 C 208.473 333.779,209.074 333.182,208.700 333.207 C 208.645 333.210,207.430 334.307,206.000 335.644 M67.400 338.000 C 68.259 338.880,69.052 339.600,69.162 339.600 C 69.272 339.600,68.659 338.880,67.800 338.000 C 66.941 337.120,66.148 336.400,66.038 336.400 C 65.928 336.400,66.541 337.120,67.400 338.000 M184.400 351.236 C 183.736 351.779,183.669 351.915,184.200 351.640 C 185.505 350.966,186.228 350.412,185.800 350.415 C 185.580 350.417,184.950 350.786,184.400 351.236 M168.200 357.200 C 167.908 357.673,168.299 357.673,169.400 357.200 C 170.171 356.869,170.169 356.855,169.324 356.828 C 168.842 356.813,168.336 356.980,168.200 357.200 M155.200 359.600 C 154.436 360.094,155.258 360.094,156.800 359.600 L 157.800 359.280 156.800 359.246 C 156.250 359.227,155.530 359.387,155.200 359.600 M148.800 360.400 C 147.456 360.831,148.908 360.831,150.600 360.400 C 151.678 360.126,151.698 360.094,150.800 360.087 C 150.250 360.083,149.350 360.224,148.800 360.400 M124.080 361.150 C 123.858 361.288,127.879 361.395,133.016 361.389 C 138.153 361.383,142.468 361.265,142.605 361.128 C 142.931 360.802,124.608 360.824,124.080 361.150 M108.390 363.519 L 108.583 365.400 108.719 363.847 C 108.793 362.993,108.707 362.147,108.526 361.966 C 108.345 361.785,108.284 362.484,108.390 363.519 M121.206 362.994 C 120.463 363.761,119.932 364.450,120.027 364.525 C 120.122 364.600,120.806 363.973,121.546 363.131 C 123.229 361.218,123.012 361.131,121.206 362.994 " stroke="none" fill="#4474d3" fill-rule="evenodd"></path><path id="path3" d="M366.469 118.700 C 363.715 126.703,357.861 132.547,349.900 135.239 C 346.542 136.374,346.547 136.414,350.160 137.535 C 357.834 139.917,364.441 146.878,366.832 155.100 C 367.472 157.301,367.735 157.243,368.372 154.759 C 370.437 146.703,378.961 138.344,386.500 136.982 C 388.490 136.622,388.391 136.288,386.100 135.624 C 377.553 133.149,370.550 126.156,368.340 117.890 C 367.685 115.441,367.573 115.489,366.469 118.700 M31.663 245.100 C 29.520 253.186,22.704 260.068,14.264 262.667 C 12.007 263.362,11.298 264.000,12.781 264.000 C 13.211 264.000,14.066 264.201,14.681 264.446 C 23.208 267.842,28.417 272.884,31.064 280.303 C 31.593 281.787,32.131 283.270,32.260 283.600 C 32.399 283.955,32.882 283.026,33.445 281.325 C 36.209 272.966,42.593 266.766,50.900 264.373 C 53.347 263.668,53.295 263.477,50.416 262.605 C 42.377 260.171,35.915 253.687,33.369 245.500 C 32.501 242.709,32.308 242.663,31.663 245.100 " stroke="none" fill="#efdf72" fill-rule="evenodd"></path><path id="path4" d="M278.432 33.139 C 278.195 33.584,277.999 34.184,277.998 34.474 C 277.994 35.473,276.195 37.233,274.600 37.798 C 273.376 38.232,273.226 38.369,273.962 38.382 C 275.409 38.409,277.571 36.535,278.444 34.497 C 279.232 32.659,279.223 31.662,278.432 33.139 M290.032 35.050 C 289.974 37.336,290.492 38.812,291.817 40.137 C 293.002 41.322,293.945 41.750,297.800 42.851 C 298.460 43.039,299.810 43.455,300.800 43.775 C 302.397 44.290,303.634 44.743,308.200 46.482 C 329.314 54.526,348.201 74.796,355.457 97.200 C 355.778 98.190,356.191 99.360,356.375 99.800 C 356.558 100.240,356.924 101.410,357.187 102.400 C 357.451 103.390,357.855 104.859,358.085 105.665 C 358.446 106.926,358.387 107.295,357.658 108.319 C 356.661 109.718,355.200 113.012,355.200 113.858 C 355.200 117.174,348.346 124.000,345.016 124.000 C 340.655 124.000,335.227 130.343,335.004 135.698 C 334.947 137.074,334.969 137.570,335.054 136.800 C 335.744 130.522,339.002 126.157,344.009 124.802 C 350.571 123.026,354.063 119.536,356.021 112.800 C 356.309 111.810,357.072 110.196,357.717 109.214 L 358.889 107.427 358.238 104.731 C 350.691 73.460,328.280 50.908,295.694 41.792 C 292.523 40.905,290.971 39.299,290.596 36.517 C 290.256 33.996,290.070 33.514,290.032 35.050 M263.500 38.295 C 264.655 38.376,266.545 38.376,267.700 38.295 C 268.855 38.214,267.910 38.148,265.600 38.148 C 263.290 38.148,262.345 38.214,263.500 38.295 M252.200 38.800 L 249.800 39.066 252.800 39.093 C 254.450 39.108,256.790 38.984,258.000 38.817 L 260.200 38.513 257.400 38.524 C 255.860 38.530,253.520 38.654,252.200 38.800 M245.800 39.478 C 244.040 39.709,234.125 41.521,231.800 42.036 C 222.838 44.021,221.677 44.446,215.000 48.190 C 199.716 56.761,184.957 69.890,172.946 85.600 C 170.345 89.002,165.600 95.840,165.600 96.185 C 165.600 96.334,165.082 97.209,164.448 98.130 C 163.305 99.792,162.716 100.785,160.138 105.400 C 156.829 111.324,150.647 124.941,150.909 125.728 C 150.983 125.948,151.376 125.244,151.783 124.164 C 152.846 121.343,156.489 113.244,157.704 111.000 C 157.942 110.560,158.757 109.030,159.515 107.600 C 162.877 101.257,169.752 90.038,170.791 89.200 C 170.927 89.090,171.471 88.370,172.000 87.600 C 172.529 86.830,173.061 86.110,173.183 86.000 C 173.305 85.890,173.938 85.086,174.589 84.213 C 183.618 72.116,197.929 59.060,210.754 51.220 C 218.137 46.707,221.956 44.860,225.800 43.945 C 226.680 43.735,228.120 43.382,229.000 43.160 C 234.199 41.848,241.193 40.560,246.144 40.000 C 247.873 39.805,249.388 39.545,249.511 39.423 C 249.747 39.186,247.797 39.215,245.800 39.478 M175.965 63.345 C 165.352 68.883,151.544 77.877,139.636 87.007 C 136.039 89.764,127.791 96.509,127.200 97.176 C 127.090 97.300,124.930 99.228,122.400 101.461 C 114.476 108.454,102.062 121.368,93.042 132.000 C 87.762 138.224,81.224 147.006,75.361 155.749 C 73.898 157.929,68.977 165.736,68.016 167.400 C 65.923 171.023,65.419 171.908,64.142 174.200 C 60.024 181.597,50.762 201.572,50.820 202.933 C 50.838 203.358,52.033 200.968,52.787 199.000 C 53.633 196.789,53.994 195.957,56.601 190.200 C 60.130 182.409,66.224 171.106,71.588 162.400 C 75.105 156.693,85.900 141.193,87.189 140.000 C 87.307 139.890,87.896 139.141,88.496 138.335 C 89.097 137.529,89.816 136.629,90.094 136.335 C 90.372 136.041,91.092 135.141,91.694 134.335 C 92.296 133.529,93.016 132.629,93.296 132.335 C 93.575 132.041,94.882 130.540,96.200 129.000 C 103.652 120.289,114.572 109.029,122.000 102.394 C 124.090 100.527,125.890 98.902,126.000 98.781 C 126.110 98.661,128.000 97.062,130.200 95.228 C 132.400 93.395,134.653 91.513,135.208 91.047 C 135.762 90.581,137.742 89.038,139.608 87.617 C 141.473 86.196,143.090 84.928,143.200 84.799 C 143.694 84.218,159.114 73.600,159.464 73.600 C 159.570 73.600,160.408 73.083,161.328 72.452 C 163.023 71.288,169.103 67.629,173.300 65.247 C 175.020 64.270,175.600 64.092,175.600 64.537 C 175.600 64.865,175.458 65.193,175.284 65.267 C 174.809 65.467,168.581 72.622,166.477 75.384 C 165.465 76.713,164.530 77.890,164.399 78.000 C 164.269 78.110,163.729 78.830,163.200 79.600 C 162.671 80.370,162.124 81.090,161.984 81.200 C 159.505 83.145,147.035 104.870,142.468 115.200 C 139.408 122.121,134.216 136.847,134.517 137.750 C 134.598 137.994,134.987 137.115,135.381 135.797 C 136.354 132.537,137.582 128.770,137.986 127.800 C 138.169 127.360,138.536 126.370,138.800 125.600 C 139.064 124.830,139.443 123.795,139.640 123.300 C 139.838 122.805,140.156 121.995,140.346 121.500 C 143.494 113.323,150.336 99.628,154.384 93.400 C 154.956 92.520,155.653 91.350,155.933 90.800 C 156.823 89.048,167.275 74.613,168.386 73.600 C 168.506 73.490,169.594 72.236,170.802 70.812 C 172.011 69.389,173.900 67.260,175.000 66.080 C 177.969 62.897,178.228 62.164,175.965 63.345 M366.814 116.374 C 366.586 116.799,366.418 117.474,366.441 117.874 C 366.464 118.281,366.665 118.029,366.899 117.300 C 367.445 115.597,367.840 115.657,368.221 117.500 C 368.392 118.325,368.599 118.716,368.682 118.368 C 369.108 116.579,367.579 114.945,366.814 116.374 M364.640 122.040 C 364.286 122.749,364.074 123.407,364.169 123.502 C 364.264 123.597,364.638 123.101,365.000 122.400 C 365.362 121.699,365.574 121.041,365.471 120.938 C 365.368 120.835,364.994 121.331,364.640 122.040 M369.600 121.465 C 369.600 124.905,381.226 135.320,384.912 135.182 C 385.180 135.172,384.295 134.652,382.943 134.026 C 377.436 131.476,373.339 127.795,371.006 123.300 C 369.987 121.336,369.600 120.831,369.600 121.465 M362.990 125.100 C 362.604 125.705,361.231 127.263,359.939 128.562 C 358.647 129.860,357.651 130.984,357.726 131.059 C 357.970 131.303,362.581 126.506,363.323 125.236 C 364.218 123.705,363.950 123.595,362.990 125.100 M150.170 127.043 C 150.034 127.459,149.654 128.517,149.326 129.394 C 148.810 130.777,148.254 132.458,146.416 138.200 C 146.063 139.301,145.296 142.063,144.360 145.600 C 143.763 147.857,142.539 153.577,141.963 156.800 C 140.976 162.325,140.448 166.523,140.253 170.400 C 140.102 173.387,140.142 174.080,140.391 172.800 C 140.583 171.810,140.754 169.995,140.770 168.767 C 140.787 167.538,140.969 165.558,141.176 164.367 C 141.383 163.175,141.756 160.850,142.007 159.200 C 142.257 157.550,142.640 155.390,142.859 154.400 C 143.077 153.410,143.411 151.880,143.600 151.000 C 144.837 145.244,147.570 135.627,149.421 130.513 C 150.185 128.403,150.722 126.589,150.614 126.481 C 150.507 126.374,150.307 126.626,150.170 127.043 M353.848 133.085 C 353.692 133.242,352.627 133.775,351.482 134.269 C 350.337 134.763,349.620 135.175,349.889 135.184 C 350.513 135.204,354.800 133.317,354.800 133.022 C 354.800 132.706,354.186 132.747,353.848 133.085 M347.376 135.773 C 346.870 136.147,346.739 136.475,347.000 136.715 C 347.549 137.222,351.639 138.494,351.895 138.238 C 352.009 138.125,350.999 137.725,349.651 137.350 C 346.910 136.588,346.711 136.348,348.300 135.720 C 348.905 135.481,349.119 135.266,348.776 135.243 C 348.434 135.219,347.804 135.458,347.376 135.773 M386.000 135.600 C 386.330 135.813,386.900 135.991,387.267 135.994 C 387.633 135.997,388.024 136.225,388.135 136.500 C 388.294 136.893,388.344 136.891,388.368 136.490 C 388.386 136.210,387.938 135.805,387.374 135.590 C 386.046 135.085,385.212 135.091,386.000 135.600 M384.525 137.576 C 377.655 140.049,370.550 147.028,369.027 152.800 C 368.882 153.350,369.530 152.277,370.467 150.415 C 373.394 144.598,381.764 137.628,385.861 137.594 C 386.267 137.591,386.870 137.413,387.200 137.200 C 388.219 136.541,386.874 136.730,384.525 137.576 M133.481 140.738 C 132.792 143.217,132.630 144.303,133.006 143.927 C 133.336 143.597,134.437 139.110,134.293 138.679 C 134.221 138.464,133.856 139.390,133.481 140.738 M352.600 138.800 C 352.736 139.020,353.026 139.200,353.246 139.200 C 355.419 139.200,361.886 145.489,364.396 150.042 C 365.050 151.229,365.589 152.045,365.593 151.856 C 365.616 150.772,362.638 146.270,360.401 144.006 C 357.532 141.102,351.559 137.116,352.600 138.800 M335.206 139.316 C 335.176 142.790,339.756 147.085,345.324 148.806 C 350.634 150.447,355.163 155.180,355.207 159.133 C 355.212 159.500,355.835 161.024,356.593 162.520 C 358.013 165.321,358.061 165.858,357.195 169.200 C 356.995 169.970,356.568 171.680,356.245 173.000 C 354.979 178.181,353.860 182.043,351.970 187.761 C 350.887 191.040,350.005 193.830,350.012 193.961 C 350.062 194.948,352.930 186.747,354.755 180.400 C 355.229 178.750,355.772 176.860,355.962 176.200 C 356.153 175.540,356.519 174.100,356.778 173.000 C 357.036 171.900,357.402 170.370,357.590 169.600 C 358.540 165.721,358.494 165.125,357.016 162.200 C 356.239 160.660,355.602 159.066,355.601 158.658 C 355.594 154.602,350.454 149.842,343.915 147.836 C 340.169 146.687,336.017 142.801,335.994 140.422 C 335.984 139.464,335.214 138.383,335.206 139.316 M213.000 141.208 C 209.816 141.588,206.844 142.144,204.800 142.744 C 204.030 142.970,202.770 143.324,202.000 143.531 C 200.506 143.933,199.486 144.274,198.200 144.800 C 197.760 144.980,197.059 145.238,196.643 145.373 C 196.226 145.508,195.959 145.692,196.049 145.782 C 196.139 145.872,198.009 145.345,200.206 144.611 C 229.893 134.696,254.293 148.494,265.611 181.600 C 266.522 184.266,267.166 185.673,267.188 185.046 C 267.294 181.964,259.327 165.922,254.953 160.409 C 247.583 151.120,238.310 143.600,234.228 143.600 C 233.909 143.600,233.536 143.420,233.400 143.200 C 233.264 142.980,232.724 142.800,232.200 142.800 C 231.676 142.800,231.136 142.620,231.000 142.400 C 230.864 142.180,230.212 142.000,229.550 142.000 C 228.889 142.000,228.029 141.829,227.639 141.621 C 226.653 141.093,216.394 140.804,213.000 141.208 M132.178 145.778 C 132.027 146.581,132.004 147.337,132.126 147.460 C 132.248 147.582,132.472 147.025,132.622 146.222 C 132.773 145.419,132.796 144.663,132.674 144.540 C 132.552 144.418,132.328 144.975,132.178 145.778 M191.668 147.465 C 190.056 148.238,188.813 148.946,188.906 149.040 C 189.000 149.133,190.589 148.492,192.438 147.616 C 194.287 146.739,195.530 146.031,195.200 146.041 C 194.870 146.052,193.281 146.692,191.668 147.465 M131.378 149.378 C 131.227 150.181,131.194 150.927,131.304 151.037 C 131.414 151.147,131.627 150.581,131.778 149.778 C 131.928 148.975,131.962 148.228,131.852 148.118 C 131.742 148.008,131.528 148.575,131.378 149.378 M184.600 151.205 C 182.840 152.274,180.860 153.457,180.200 153.835 C 179.143 154.440,174.855 157.571,172.007 159.817 C 169.534 161.767,162.064 169.302,159.731 172.200 C 158.313 173.960,156.871 175.744,156.525 176.165 C 153.979 179.264,148.675 188.468,146.594 193.400 C 146.222 194.280,145.766 195.360,145.580 195.800 C 145.393 196.240,144.848 197.860,144.368 199.400 C 143.887 200.940,143.295 202.740,143.051 203.400 L 142.608 204.600 142.337 203.000 C 142.188 202.120,141.866 200.320,141.622 199.000 C 140.859 194.870,140.343 189.263,140.038 181.800 L 139.744 174.600 139.672 180.231 C 139.566 188.531,140.154 194.096,142.266 204.794 C 142.537 206.166,142.817 205.589,144.776 199.625 C 146.423 194.610,150.035 186.677,151.982 183.800 C 152.578 182.920,153.166 181.930,153.289 181.600 C 153.903 179.956,160.394 171.771,164.990 166.846 C 169.440 162.079,179.350 154.496,185.400 151.230 C 187.862 149.901,188.872 149.175,188.180 149.231 C 187.971 149.248,186.360 150.136,184.600 151.205 M130.697 152.400 C 130.540 152.950,130.425 153.940,130.442 154.600 L 130.472 155.800 130.858 154.458 C 131.071 153.720,131.186 152.730,131.114 152.258 C 130.992 151.454,130.966 151.463,130.697 152.400 M213.800 153.191 C 209.614 153.757,207.987 154.098,207.767 154.454 C 207.649 154.644,207.059 154.800,206.456 154.800 C 205.853 154.800,205.189 154.943,204.980 155.118 C 204.771 155.293,203.880 155.668,203.000 155.952 C 199.853 156.964,193.344 160.050,190.928 161.675 C 190.008 162.294,189.151 162.800,189.024 162.800 C 188.603 162.800,181.011 168.234,179.690 169.481 C 179.410 169.746,178.343 170.646,177.320 171.481 C 170.550 177.009,160.661 190.813,157.606 199.000 C 157.441 199.440,157.115 200.250,156.880 200.800 C 156.645 201.350,156.236 202.520,155.971 203.400 C 155.706 204.280,155.346 205.360,155.172 205.800 C 154.997 206.240,154.744 207.230,154.609 208.000 C 154.474 208.770,154.192 210.390,153.982 211.600 C 151.194 227.679,157.476 240.199,171.000 245.516 C 197.054 255.760,241.425 222.413,247.796 187.800 C 251.572 167.286,234.921 150.335,213.800 153.191 M368.229 155.029 C 368.081 155.615,368.051 156.184,368.161 156.294 C 368.271 156.404,368.481 156.015,368.629 155.429 C 368.776 154.842,368.806 154.273,368.696 154.163 C 368.586 154.053,368.376 154.442,368.229 155.029 M366.432 154.926 C 366.389 155.912,367.118 157.201,367.714 157.194 C 368.054 157.190,368.068 157.099,367.760 156.894 C 367.518 156.732,367.127 156.060,366.892 155.400 C 366.626 154.656,366.451 154.476,366.432 154.926 M129.897 156.800 C 129.740 157.350,129.628 158.520,129.649 159.400 L 129.688 161.000 130.049 159.200 C 130.483 157.044,130.364 155.171,129.897 156.800 M129.061 162.863 C 128.171 170.617,127.993 173.611,127.996 180.755 C 127.998 185.240,128.189 190.550,128.421 192.555 C 129.042 197.944,129.610 201.647,130.021 203.000 C 130.441 204.380,130.349 203.469,129.357 196.400 C 128.380 189.446,128.202 176.496,128.973 168.453 C 129.340 164.632,129.554 161.421,129.450 161.316 C 129.345 161.212,129.170 161.908,129.061 162.863 M267.242 186.000 C 267.225 186.330,267.552 187.680,267.969 189.000 C 268.386 190.320,268.741 191.130,268.758 190.800 C 268.775 190.470,268.448 189.120,268.031 187.800 C 267.614 186.480,267.259 185.670,267.242 186.000 M268.868 192.400 C 268.887 194.050,269.517 195.756,269.532 194.200 C 269.538 193.540,269.389 192.640,269.200 192.200 C 268.887 191.473,268.857 191.491,268.868 192.400 M256.592 195.758 C 256.266 196.537,255.998 197.405,255.996 197.687 C 255.990 198.313,253.407 205.666,252.783 206.831 C 252.537 207.292,252.435 207.768,252.556 207.890 C 252.678 208.011,252.944 207.681,253.148 207.155 C 253.352 206.630,253.913 205.210,254.395 204.000 C 255.233 201.900,255.583 200.868,256.841 196.800 L 257.398 195.000 257.714 196.800 C 258.574 201.693,258.813 203.277,259.195 206.600 C 260.610 218.903,259.977 230.905,257.149 245.400 C 253.129 266.010,244.918 286.213,233.414 303.800 C 224.611 317.259,213.013 330.432,202.600 338.800 C 200.840 340.214,199.310 341.476,199.200 341.605 C 199.090 341.733,198.370 342.271,197.600 342.800 C 196.830 343.329,196.110 343.875,196.000 344.014 C 195.703 344.390,188.962 348.837,186.200 350.480 C 180.469 353.887,177.647 355.114,172.767 356.318 C 158.072 359.945,147.405 361.259,131.922 361.349 L 123.245 361.400 121.871 362.732 C 120.512 364.048,118.928 367.200,119.625 367.200 C 119.823 367.200,120.104 366.705,120.251 366.100 C 121.154 362.365,123.312 361.425,130.156 361.787 C 138.933 362.251,153.090 360.998,164.100 358.782 C 169.992 357.597,169.761 357.651,176.800 355.782 C 181.106 354.639,194.769 345.997,202.573 339.482 C 210.075 333.218,221.416 321.553,224.777 316.643 C 225.094 316.179,225.459 315.710,225.588 315.600 C 229.149 312.561,240.992 292.962,245.891 282.000 C 248.919 275.224,251.556 268.296,253.200 262.800 C 253.693 261.150,254.234 259.350,254.402 258.800 C 254.693 257.847,255.033 256.566,255.942 253.000 C 260.582 234.792,261.601 215.866,258.785 200.200 C 258.548 198.880,258.255 197.124,258.135 196.297 C 257.836 194.252,257.299 194.065,256.592 195.758 M348.224 198.255 C 345.711 204.668,344.616 207.121,340.751 215.000 C 336.199 224.281,330.871 233.832,327.548 238.672 C 326.917 239.592,326.400 240.522,326.400 240.739 C 326.400 240.956,326.259 241.193,326.087 241.267 C 325.915 241.340,325.361 242.108,324.858 242.972 C 324.354 243.837,323.149 245.637,322.181 246.972 C 321.212 248.308,318.840 251.581,316.910 254.247 C 314.979 256.913,312.860 259.776,312.200 260.608 C 308.416 265.381,307.108 266.979,304.018 270.600 C 294.936 281.245,279.476 296.608,269.590 304.813 C 267.945 306.178,266.147 307.678,265.594 308.147 C 265.041 308.616,263.932 309.492,263.129 310.094 C 262.326 310.696,261.429 311.422,261.135 311.707 C 260.841 311.993,259.970 312.662,259.200 313.194 C 258.430 313.726,257.710 314.270,257.600 314.402 C 256.938 315.198,237.137 328.800,236.640 328.800 C 236.540 328.800,235.051 329.661,233.329 330.714 C 228.688 333.553,224.732 335.665,224.496 335.430 C 224.382 335.315,225.348 334.088,226.644 332.702 C 227.940 331.316,229.720 329.286,230.600 328.191 C 231.480 327.096,232.304 326.110,232.432 326.000 C 233.546 325.040,242.222 312.827,245.086 308.187 C 249.352 301.276,256.956 286.413,259.251 280.500 C 259.443 280.005,259.804 279.105,260.054 278.500 C 260.938 276.355,261.159 275.763,262.334 272.400 C 264.571 265.999,267.200 257.349,267.200 256.390 C 267.200 255.376,266.781 256.304,266.185 258.639 C 265.534 261.193,263.317 268.500,262.799 269.800 C 262.624 270.240,262.264 271.230,262.000 272.000 C 261.736 272.770,261.375 273.760,261.199 274.200 C 261.022 274.640,260.470 276.080,259.970 277.400 C 257.489 283.963,252.188 295.155,248.511 301.600 C 246.724 304.731,245.052 307.471,243.957 309.062 C 243.321 309.987,242.800 310.841,242.800 310.958 C 242.800 312.153,230.377 328.112,224.606 334.331 C 220.994 338.223,222.387 337.723,233.400 331.171 C 238.132 328.357,247.221 322.542,248.200 321.704 C 248.420 321.515,249.770 320.573,251.200 319.611 C 252.630 318.648,253.890 317.748,254.000 317.611 C 254.110 317.474,254.830 316.926,255.600 316.393 C 257.262 315.244,267.046 307.600,268.214 306.539 C 268.661 306.133,270.011 304.994,271.214 304.009 C 279.042 297.597,292.647 284.184,301.653 274.000 C 303.112 272.350,304.819 270.370,305.446 269.600 C 306.074 268.830,306.687 268.110,306.808 268.000 C 311.207 264.016,327.902 239.813,335.089 227.000 C 339.991 218.260,350.272 195.815,349.893 194.679 C 349.825 194.476,349.075 196.086,348.224 198.255 M269.835 197.400 C 269.982 198.500,270.169 199.475,270.251 199.567 C 270.610 199.968,270.346 196.539,269.977 196.000 C 269.686 195.574,269.645 195.980,269.835 197.400 M270.655 202.600 C 270.789 204.140,270.966 205.475,271.049 205.567 C 271.372 205.924,271.123 201.354,270.778 200.600 C 270.539 200.079,270.497 200.776,270.655 202.600 M50.400 203.672 C 50.400 203.785,49.846 205.390,49.169 207.238 C 48.492 209.087,47.663 211.500,47.326 212.600 C 46.989 213.700,46.573 214.960,46.402 215.400 C 46.231 215.840,45.870 217.010,45.599 218.000 C 45.329 218.990,44.969 220.250,44.800 220.800 C 44.631 221.350,44.307 222.520,44.079 223.400 C 43.852 224.280,43.479 225.720,43.250 226.600 C 43.021 227.480,42.623 229.190,42.367 230.400 C 42.110 231.610,41.745 233.115,41.555 233.745 C 41.288 234.632,41.388 235.141,42.000 235.999 C 42.957 237.344,44.400 240.636,44.400 241.475 C 44.400 244.866,51.315 251.668,54.675 251.581 C 55.074 251.571,54.573 251.239,53.563 250.844 C 48.891 249.016,46.435 246.293,44.808 241.136 C 44.304 239.540,43.454 237.451,42.919 236.493 C 41.912 234.688,41.909 234.477,42.843 230.400 C 43.828 226.102,44.112 224.931,44.441 223.800 C 46.991 215.032,47.958 211.939,49.294 208.269 C 50.161 205.886,50.765 203.831,50.635 203.702 C 50.506 203.573,50.400 203.559,50.400 203.672 M130.446 205.400 C 130.427 206.060,130.587 206.870,130.800 207.200 C 131.290 207.958,131.290 206.730,130.800 205.200 C 130.486 204.220,130.479 204.224,130.446 205.400 M271.400 219.204 C 271.400 226.329,271.514 231.627,271.653 230.979 C 271.792 230.330,271.905 225.030,271.905 219.200 C 271.905 213.370,271.792 208.072,271.653 207.426 C 271.514 206.780,271.400 212.080,271.400 219.204 M131.237 208.600 C 131.214 209.524,133.061 216.005,133.449 216.361 C 133.790 216.674,133.485 215.353,132.260 211.200 C 131.708 209.330,131.248 208.160,131.237 208.600 M250.610 211.525 C 245.761 220.993,237.843 230.984,229.600 238.034 C 227.950 239.445,226.510 240.690,226.400 240.800 C 225.363 241.837,218.236 246.800,217.784 246.800 C 217.641 246.800,217.043 247.142,216.456 247.560 C 215.868 247.979,213.231 249.410,210.594 250.742 C 207.957 252.074,205.995 253.172,206.234 253.182 C 207.389 253.230,217.903 247.476,222.196 244.447 C 229.969 238.960,235.995 233.127,243.486 223.835 C 246.002 220.715,252.778 209.045,252.333 208.599 C 252.251 208.518,251.476 209.834,250.610 211.525 M133.600 217.083 C 133.600 217.703,137.194 226.338,138.269 228.300 C 138.781 229.235,139.656 230.826,140.213 231.837 C 148.425 246.734,159.254 255.565,172.800 258.413 C 175.361 258.951,187.478 258.704,190.600 258.049 C 191.700 257.819,193.230 257.521,194.000 257.388 C 194.770 257.255,195.760 256.998,196.200 256.818 C 196.640 256.638,197.810 256.270,198.800 256.000 C 200.643 255.497,201.448 255.221,203.200 254.490 C 203.750 254.260,204.541 253.962,204.957 253.827 C 205.374 253.692,205.622 253.489,205.509 253.376 C 205.396 253.263,204.336 253.557,203.152 254.029 C 173.006 266.051,148.586 254.069,135.429 220.800 C 133.909 216.957,133.600 216.328,133.600 217.083 M270.874 233.644 C 270.833 234.438,270.711 235.968,270.602 237.044 C 270.418 238.857,270.434 238.903,270.821 237.668 C 271.051 236.935,271.174 235.405,271.094 234.268 C 270.990 232.790,270.927 232.612,270.874 233.644 M269.867 241.547 C 269.698 242.727,269.647 243.781,269.754 243.888 C 270.049 244.182,270.490 241.436,270.322 240.352 C 270.232 239.770,270.055 240.234,269.867 241.547 M31.574 243.868 C 31.351 244.456,31.235 245.221,31.318 245.568 C 31.401 245.916,31.608 245.525,31.779 244.700 C 32.160 242.857,32.555 242.797,33.101 244.500 C 33.335 245.229,33.536 245.481,33.559 245.074 C 33.672 243.065,32.215 242.181,31.574 243.868 M269.047 246.137 C 268.878 247.202,268.832 248.165,268.944 248.278 C 269.236 248.569,269.705 245.824,269.514 244.940 C 269.427 244.533,269.216 245.071,269.047 246.137 M33.834 246.800 C 35.356 252.718,43.300 260.664,49.200 262.168 C 49.750 262.308,49.085 261.893,47.723 261.247 C 41.621 258.349,37.651 254.379,34.753 248.277 C 34.107 246.915,33.693 246.250,33.834 246.800 M29.002 250.484 C 26.059 256.155,20.506 260.379,13.000 262.655 C 11.127 263.223,11.559 264.016,14.184 264.828 C 15.495 265.233,16.646 265.487,16.741 265.392 C 16.837 265.297,16.574 265.110,16.157 264.977 C 15.741 264.844,14.987 264.570,14.481 264.367 C 13.976 264.165,13.211 264.000,12.781 264.000 C 11.298 264.000,12.007 263.362,14.264 262.667 C 18.601 261.332,21.627 259.532,24.800 256.400 C 27.532 253.705,30.789 249.056,30.293 248.560 C 30.187 248.454,29.607 249.320,29.002 250.484 M268.178 250.178 C 268.027 250.981,268.004 251.737,268.126 251.860 C 268.248 251.982,268.472 251.425,268.622 250.622 C 268.773 249.819,268.796 249.063,268.674 248.940 C 268.552 248.818,268.328 249.375,268.178 250.178 M57.420 252.565 C 60.936 254.165,62.392 255.817,64.324 260.400 C 64.556 260.950,64.756 261.130,64.769 260.800 C 64.858 258.488,60.748 253.406,57.789 252.169 C 55.549 251.234,55.235 251.571,57.420 252.565 M267.378 253.778 C 267.227 254.581,267.204 255.337,267.326 255.460 C 267.448 255.582,267.672 255.025,267.822 254.222 C 267.973 253.419,267.996 252.663,267.874 252.540 C 267.752 252.418,267.528 252.975,267.378 253.778 M64.901 263.400 C 64.905 264.280,64.987 264.593,65.083 264.095 C 65.179 263.598,65.175 262.878,65.075 262.495 C 64.975 262.113,64.896 262.520,64.901 263.400 M51.500 262.899 C 52.895 263.346,53.247 263.996,52.100 264.006 C 51.715 264.009,51.130 264.204,50.800 264.438 C 50.345 264.762,50.490 264.802,51.400 264.604 C 53.700 264.104,53.390 262.323,51.024 262.441 C 50.443 262.470,50.583 262.605,51.500 262.899 M47.653 265.453 C 46.913 265.776,46.392 266.125,46.495 266.228 C 46.599 266.332,47.475 266.066,48.442 265.637 C 49.409 265.208,49.930 264.858,49.600 264.861 C 49.270 264.863,48.394 265.130,47.653 265.453 M64.234 266.400 C 63.237 270.626,60.077 273.784,55.400 275.228 C 48.895 277.236,46.384 279.700,44.220 286.200 C 43.633 287.960,42.714 290.071,42.177 290.891 C 40.820 292.964,40.765 292.465,43.189 300.200 C 49.838 321.423,63.047 338.247,81.285 348.723 C 85.870 351.357,93.149 354.800,94.132 354.800 C 94.411 354.800,94.811 354.948,95.020 355.128 C 95.229 355.308,96.750 355.870,98.400 356.376 C 104.823 358.347,105.473 358.630,106.689 359.986 C 107.197 360.553,107.679 361.752,107.814 362.788 C 108.141 365.294,108.777 366.738,108.524 364.400 C 108.139 360.841,106.055 357.600,104.152 357.600 C 99.875 357.600,76.034 346.394,73.600 343.239 C 73.490 343.096,72.590 342.358,71.600 341.600 C 58.609 331.642,47.231 314.246,42.823 297.600 C 42.560 296.610,42.178 295.247,41.973 294.572 C 41.431 292.787,41.484 292.517,42.729 290.672 C 43.350 289.752,44.253 287.726,44.735 286.168 C 46.317 281.065,49.399 277.581,53.385 276.389 C 60.289 274.325,65.321 269.651,64.707 265.873 C 64.595 265.186,64.494 265.299,64.234 266.400 M18.200 266.263 C 18.860 266.674,19.935 267.278,20.588 267.605 C 23.098 268.862,27.745 274.061,29.533 277.615 C 30.470 279.477,31.118 280.550,30.973 280.000 C 29.955 276.141,24.796 269.750,20.738 267.319 C 18.455 265.952,16.184 265.006,18.200 266.263 M43.400 267.862 C 40.258 270.127,36.079 274.431,37.066 274.384 C 37.250 274.376,37.983 273.577,38.694 272.609 C 39.406 271.640,41.206 269.996,42.694 268.955 C 45.935 266.687,46.287 266.397,45.780 266.410 C 45.571 266.415,44.500 267.069,43.400 267.862 M35.786 276.100 L 35.152 277.400 35.967 276.400 C 36.752 275.437,37.008 274.800,36.610 274.800 C 36.506 274.800,36.135 275.385,35.786 276.100 M34.223 279.006 C 33.322 281.164,33.511 281.728,34.437 279.642 C 34.866 278.675,35.134 277.800,35.032 277.698 C 34.930 277.597,34.566 278.185,34.223 279.006 M31.232 281.681 C 31.192 282.543,32.024 284.400,32.450 284.400 C 32.909 284.400,33.606 282.985,33.570 282.126 C 33.553 281.720,33.308 282.018,33.016 282.800 L 32.493 284.200 32.104 283.200 C 31.890 282.650,31.613 281.930,31.489 281.600 C 31.306 281.114,31.257 281.129,31.232 281.681 " stroke="none" fill="#595b6d" fill-rule="evenodd"></path></g></svg>